<svg width="110" height="54" viewBox="0 0 110 54" fill="none" xmlns="http://www.w3.org/2000/svg">
<path d="M45.4268 46.2062C35.3501 56.2824 19.2031 56.5884 8.75797 47.1239L17.2443 38.6374L32.2554 23.6267L35.0777 26.4488L20.7301 40.7966C26.0904 43.1463 32.5714 42.1269 36.9596 37.739C42.6748 32.0233 42.6748 22.7566 36.9596 17.0409C31.2438 11.3252 21.977 11.3252 16.2614 17.0409C11.1884 22.1138 10.6181 29.9846 14.5504 35.6868L6.00532 44.2317C-2.55918 33.7789 -1.96298 18.3304 7.79399 8.57326C18.186 -1.81861 35.0346 -1.81861 45.4268 8.57326C55.8185 18.9654 55.8185 35.814 45.4268 46.2062Z" fill="black"/>
<path d="M83.2713 53.2208C97.522 53.2208 109.156 42.0192 109.849 27.9411H76.619V31.9327H96.9094C94.7803 37.384 89.4773 41.2462 83.2717 41.2462C75.1884 41.2462 68.6358 34.6936 68.6358 26.6103C68.6358 18.5274 75.1884 11.9748 83.2717 11.9748C90.4458 11.9748 96.4145 17.1368 97.6658 23.9495H109.751C108.415 10.5024 97.0698 0 83.2713 0C68.5752 0 56.6611 11.9137 56.6611 26.6103C56.6611 41.3068 68.5752 53.2208 83.2713 53.2208Z" fill="black"/>
</svg>
