<svg width="147" height="54" viewBox="0 0 147 54" fill="none" xmlns="http://www.w3.org/2000/svg">
<path d="M58.3066 0.000305176H55.2811H49.6797V6.03359H55.2811V53.255H61.3322V0.000305176H58.3066Z" fill="black"/>
<path d="M104.434 34.7096C104.434 21.9726 97.3372 14.3756 86.431 14.3756C75.5238 14.3756 68.3533 21.6006 68.3533 34.3364C68.3533 47.0723 75.449 54 86.431 54C95.0949 54 101.595 49.0092 103.388 42.0827H96.6649C95.1697 45.286 92.1081 48.1159 86.431 48.1159C79.1099 48.1159 75.376 43.4984 74.6279 36.8692H104.434V34.7096ZM74.7027 31.1345C75.5986 24.7292 79.484 20.185 86.431 20.185C93.3771 20.185 97.038 24.6546 97.9348 31.1345H74.7027Z" fill="black"/>
<path d="M128.262 14.3756C117.28 14.3756 110.184 21.6006 110.184 34.3364C110.184 47.0723 117.28 54 128.262 54C139.243 54 146.264 47.2962 146.264 34.3364C146.264 21.3767 139.168 14.3756 128.262 14.3756ZM128.262 48.2653C120.418 48.2653 116.159 42.1574 116.159 34.2631C116.159 26.3688 120.418 20.0369 128.262 20.0369C136.105 20.0369 140.288 26.2195 140.288 34.2631C140.288 42.3066 136.18 48.2653 128.262 48.2653Z" fill="black"/>
<path d="M31.4535 0H25.5661H19.1272L8.42896 31.1342H14.944L23.6099 5.73479H26.7476L35.4122 31.1342H23.4677H14.944L12.9278 36.869H25.4102H37.3547L42.9565 53.2547H49.6799L31.4535 0Z" fill="black"/>
<path d="M0.826416 53.255H7.32521L12.9281 36.8694H6.4581L0.826416 53.255Z" fill="black"/>
<path d="M1.97117 31.1343L0 36.8691H6.45761L8.42878 31.1343H1.97117Z" fill="black"/>
</svg>
