<svg width="224" height="53" viewBox="0 0 224 53" fill="none" xmlns="http://www.w3.org/2000/svg">
<g clip-path="url(#clip0_4627_3513)">
<path d="M52.6086 49.4776H40.1856L36.3852 40.3838H15.6808L12.2184 49.4776H0L18.6668 3.54883H32.0398L52.6086 49.4776ZM25.5234 14.5237L18.7354 32.3689H32.991L25.5234 14.5237ZM97.7357 3.54883H107.782V49.4776H96.2408V20.7891L83.7505 35.1992H81.9862L69.4968 20.7891V49.477H57.9555V3.54883H68.0019L82.8677 20.5863L97.7357 3.54883ZM137.025 3.54883C153.927 3.54883 162.614 13.9856 162.614 26.5787C162.614 39.7777 154.198 49.4776 135.734 49.4776H116.591V3.54883H137.025ZM128.132 41.0596H135.665C147.273 41.0596 150.736 33.2461 150.736 26.5107C150.736 18.6308 146.458 11.9656 135.53 11.9656H128.131V41.0596H128.132ZM185.575 14.4389L171.023 0H224V52.5575L209.448 38.1202V14.4389H185.575ZM185.558 17.3322L170.576 32.1948V52.9997H191.545L206.526 38.1372H185.558V17.3322Z" fill="black"/>
</g>
<defs>
<clipPath id="clip0_4627_3513">
<rect width="224" height="53" fill="white"/>
</clipPath>
</defs>
</svg>
