<svg width="233" height="42" viewBox="0 0 233 42" fill="none" xmlns="http://www.w3.org/2000/svg">
<g clip-path="url(#clip0_4627_3529)">
<path d="M103.989 32.5299L106.996 11.1065C107.76 5.68734 109.799 3.10437 113.264 3.10437C116.169 3.10437 119.43 5.02894 119.43 8.87805C119.43 10.1949 119.022 11.7649 118.054 13.5882L107.302 33.4415C106.435 35.0116 105.824 36.3791 105.824 37.3919C105.824 38.7087 106.945 39.5698 107.811 39.5698C108.881 39.5698 110.359 38.4556 112.958 36.4803L117.646 32.8844C119.583 31.4157 121.367 30.8079 122.896 30.8079C126.259 30.8079 128.501 33.6948 128.501 36.5817C128.501 39.4684 126.31 42.3553 120.959 42.3553H110.818C105.263 42.3553 103.785 40.4814 103.785 35.2649C103.785 34.4545 103.836 33.5429 103.989 32.5299Z" fill="black"/>
<path d="M79.3178 39.8733L77.1265 42.659H76.9737V9.73875C76.9737 8.89465 76.7358 8.11806 76.2601 7.40902C75.8186 6.69998 75.1051 6.15974 74.1199 5.78834V5.6364C75.5807 5.50134 76.9907 5.14681 78.3495 4.57283C79.7085 3.99883 80.8296 3.20537 81.713 2.19244H81.8659V18.8551C81.8659 19.2265 81.8489 19.581 81.8149 19.9186C81.8149 20.2564 81.7979 20.6952 81.7639 21.2354H81.8149C82.4264 20.5264 83.2589 19.7836 84.312 19.007C85.3991 18.1968 86.6222 17.5045 87.9812 16.9305C89.34 16.3565 90.784 16.0695 92.3128 16.0695C94.1813 16.0695 95.863 16.576 97.3579 17.589C98.8867 18.6018 100.076 19.9862 100.925 21.742C101.808 23.464 102.25 25.4222 102.25 27.617C102.25 29.7778 101.859 31.7868 101.078 33.6439C100.297 35.4671 99.2094 37.0878 97.8166 38.506C96.4236 39.8902 94.8269 40.9708 93.0262 41.7472C91.2257 42.5238 89.3062 42.9121 87.2676 42.9121C85.4671 42.9121 83.8873 42.6252 82.5283 42.0512C81.2033 41.4434 80.1332 40.7175 79.3178 39.8733ZM96.9501 29.2376C96.8823 26.1312 96.1349 23.7002 94.7079 21.9446C93.3149 20.155 91.4974 19.2603 89.2552 19.2603C87.9302 19.2603 86.6392 19.5303 85.3821 20.0707C84.1251 20.5771 82.953 21.2018 81.8659 21.9446V37.4423C81.8659 38.9617 82.3924 40.1097 83.4457 40.8863C84.4988 41.6629 85.7558 42.0512 87.2168 42.0512C89.0853 42.0512 90.75 41.4941 92.2108 40.3799C93.7056 39.2657 94.8778 37.7463 95.7272 35.8217C96.5764 33.8971 96.9842 31.7024 96.9501 29.2376Z" fill="black"/>
<path d="M69.9374 42.6083C67.1346 42.6083 66.3193 40.937 66.2683 39.0125H66.2173C64.4846 41.2409 61.6308 42.8616 57.9108 42.8616C52.6619 42.8616 49.7061 39.4176 49.7061 35.4671C49.7061 28.7819 54.8531 27.4144 60.102 27.1106C67.3384 26.7054 69.0711 26.2495 69.0711 22.8562C69.0711 19.615 66.523 18.8553 63.6692 18.8046C59.3886 18.7539 56.9425 20.2226 56.2291 24.0718H52.1013C53.0186 18.8553 57.1463 15.6138 63.9751 15.6138C69.0711 15.6138 73.8615 17.9942 72.5873 24.5275L70.1922 36.632C69.8355 38.5566 70.0394 39.7722 72.4855 39.3163H72.6383L72.0268 42.2538C71.5172 42.4058 70.9057 42.6083 69.9374 42.6083ZM53.8338 35.1633C53.8338 37.8982 55.6175 39.7215 58.777 39.7215C63.8731 39.7215 66.574 36.2269 67.3384 32.3778L68.0519 28.7819C66.4212 29.6935 64.3318 29.8454 59.9491 30.1999C57.9108 30.352 53.8338 30.6558 53.8338 35.1633Z" fill="black"/>
<path d="M23.9314 36.708V19.7659H26.7726V16.9422H29.6137V14.1185H38.1374V16.9422H32.4549V19.7659H29.6137V36.708H32.4549V39.5316H38.1374V42.3553H29.6137V39.5316H26.7726V36.708H23.9314ZM40.9786 39.5316H38.1374V36.708H40.9786V19.7659H38.1374V16.9422H40.9786V2.82379H46.661V42.3553H40.9786V39.5316Z" fill="black"/>
<path d="M22.5677 11.2947H19.7265V16.9421H16.8853V22.5894H14.0441V28.2369H11.2029V33.8842H8.36174V39.5315H5.52053V45.1788H-0.161865V39.5315H2.67934V33.8842H5.52053V28.2369H8.36174V22.5894H11.2029V16.9421H14.0441V11.2947H16.8853V5.64736H19.7265V0H25.4089V5.64736H22.5677V11.2947Z" fill="black"/>
<path d="M205.432 42.1617L212.776 4.34485H217.035L214.32 18.5724H214.426C216.556 15.9279 219.642 14.1825 223.314 14.1825C229.328 14.1825 233 18.7311 233 25.5011C233 33.7521 228.476 42.9551 219.109 42.9551C215.066 42.9551 212.192 41.2097 210.542 38.142H210.435L209.69 42.1617H205.432ZM211.871 31.1605C211.82 35.8149 214.054 39.4115 218.95 39.4115C225.762 39.4115 228.636 31.8481 228.636 25.7657C228.636 21.5343 227.04 17.7791 222.197 17.7791C215.544 17.7791 211.925 24.6548 211.871 31.1605Z" fill="black"/>
<path d="M195.432 42.1617L196.125 38.3536H196.018C193.782 40.9981 190.803 42.7964 186.758 42.7964C181.382 42.7964 178.829 39.4115 179.893 33.858L183.618 14.8173H187.822L184.098 33.805C183.351 37.5602 184.416 39.2528 187.768 39.2528C192.665 39.2528 196.763 35.1802 197.775 30.1028L200.754 14.8173H205.012L199.69 42.1617H195.432Z" fill="black"/>
<path d="M168.432 42.1617L175.776 4.34485H180.035L172.69 42.1617H168.432Z" fill="black"/>
<path d="M154.014 42.9021C147.202 42.9021 142.519 38.8825 142.519 31.1605C142.519 22.6449 148.266 14.1296 157.207 14.1296C163.38 14.1296 166.946 17.5674 167.478 23.6499H163.168C162.796 20.0533 160.986 17.6204 156.994 17.6204C150.342 17.6204 146.83 24.6019 146.83 31.2662C146.83 35.762 148.799 39.3585 154.067 39.3585C157.952 39.3585 160.986 36.8726 162.103 32.5355H166.201C164.658 39.1469 159.921 42.9021 154.014 42.9021Z" fill="black"/>
<path d="M133.386 42.1619L134.397 36.9257H139.506L138.495 42.1619H133.386Z" fill="black"/>
</g>
<defs>
<clipPath id="clip0_4627_3529">
<rect width="233" height="42" fill="white"/>
</clipPath>
</defs>
</svg>
