<svg width="1088" height="1087" viewBox="0 0 1088 1087" fill="none" xmlns="http://www.w3.org/2000/svg">
<g clip-path="url(#clip0_4561_2489)">
<rect x="0.755859" width="1086.33" height="1086.33" rx="103.91" fill="#12C4E7"/>
<g filter="url(#filter0_d_4561_2489)">
<path d="M145.703 375.102C145.394 374.587 144.313 373.815 142.459 372.785C140.606 371.652 138.289 370.468 135.509 369.232C132.729 367.997 129.691 366.916 126.396 365.989C123.101 365.062 119.806 364.599 116.511 364.599C112.186 364.599 108.84 365.371 106.471 366.916C104.103 368.357 102.919 370.622 102.919 373.712C102.919 376.183 103.794 378.139 105.545 379.581C107.398 381.022 110.024 382.31 113.422 383.442C116.82 384.472 120.99 385.708 125.933 387.149C132.935 389.003 139.01 391.268 144.158 393.945C149.307 396.519 153.22 399.866 155.897 403.985C158.677 408.103 160.067 413.561 160.067 420.357C160.067 426.535 158.934 431.786 156.669 436.111C154.404 440.333 151.315 443.782 147.402 446.46C143.592 449.034 139.216 450.939 134.273 452.174C129.331 453.307 124.234 453.873 118.982 453.873C113.628 453.873 108.119 453.358 102.456 452.329C96.8952 451.196 91.5408 449.652 86.3923 447.695C81.2438 445.636 76.5072 443.164 72.1825 440.281L83.3032 418.194C83.7151 418.709 85.0537 419.687 87.319 421.129C89.5844 422.468 92.3645 423.909 95.6596 425.454C99.0576 426.895 102.816 428.182 106.935 429.315C111.054 430.448 115.224 431.014 119.446 431.014C123.976 431.014 127.323 430.293 129.485 428.852C131.75 427.41 132.883 425.402 132.883 422.828C132.883 420.048 131.699 417.885 129.331 416.341C127.065 414.796 123.925 413.406 119.909 412.171C115.996 410.935 111.465 409.545 106.317 408C99.6239 405.941 94.0635 403.624 89.6359 401.05C85.3111 398.476 82.0676 395.335 79.9052 391.628C77.8458 387.921 76.8161 383.288 76.8161 377.727C76.8161 370.005 78.6181 363.518 82.2221 358.266C85.929 352.912 90.8715 348.896 97.0497 346.219C103.228 343.439 109.972 342.048 117.283 342.048C122.432 342.048 127.374 342.666 132.111 343.902C136.95 345.138 141.43 346.682 145.548 348.536C149.77 350.389 153.528 352.242 156.823 354.096L145.703 375.102ZM217.269 454.182C211.194 454.182 205.891 452.895 201.361 450.321C196.83 447.644 193.278 444.04 190.703 439.509V485.536H165.991V371.549H187.46V384.678C190.446 380.044 194.204 376.44 198.735 373.866C203.266 371.292 208.568 370.005 214.644 370.005C220.101 370.005 225.095 371.086 229.626 373.248C234.259 375.411 238.275 378.397 241.673 382.207C245.071 386.016 247.697 390.444 249.55 395.49C251.404 400.535 252.331 405.993 252.331 411.862C252.331 419.893 250.837 427.101 247.851 433.485C244.865 439.869 240.695 444.915 235.341 448.622C230.089 452.329 224.065 454.182 217.269 454.182ZM208.929 433.331C211.606 433.331 214.026 432.765 216.188 431.632C218.454 430.396 220.41 428.8 222.057 426.844C223.705 424.887 224.941 422.622 225.764 420.048C226.691 417.371 227.154 414.59 227.154 411.707C227.154 408.721 226.64 405.993 225.61 403.521C224.683 401.05 223.345 398.888 221.594 397.034C219.844 395.078 217.784 393.585 215.416 392.555C213.048 391.525 210.473 391.01 207.693 391.01C206.046 391.01 204.347 391.268 202.596 391.783C200.949 392.298 199.353 393.07 197.808 394.1C196.367 395.026 195.028 396.159 193.792 397.498C192.557 398.836 191.527 400.381 190.703 402.131V418.812C191.836 421.592 193.329 424.064 195.182 426.226C197.036 428.388 199.147 430.139 201.515 431.477C203.883 432.713 206.355 433.331 208.929 433.331ZM297.222 454.182C290.323 454.182 284.145 453.05 278.688 450.784C273.333 448.519 268.803 445.43 265.096 441.517C261.389 437.604 258.557 433.125 256.601 428.079C254.747 423.034 253.821 417.731 253.821 412.171C253.821 406.507 254.747 401.153 256.601 396.107C258.557 391.062 261.389 386.583 265.096 382.67C268.803 378.757 273.333 375.668 278.688 373.403C284.145 371.137 290.323 370.005 297.222 370.005C304.121 370.005 310.248 371.137 315.602 373.403C320.957 375.668 325.488 378.757 329.194 382.67C332.901 386.583 335.733 391.062 337.689 396.107C339.646 401.153 340.624 406.507 340.624 412.171C340.624 417.731 339.646 423.034 337.689 428.079C335.733 433.125 332.901 437.604 329.194 441.517C325.488 445.43 320.957 448.519 315.602 450.784C310.248 453.05 304.121 454.182 297.222 454.182ZM279.151 412.171C279.151 416.392 279.924 420.099 281.468 423.291C283.116 426.483 285.278 428.955 287.955 430.705C290.632 432.456 293.721 433.331 297.222 433.331C300.62 433.331 303.658 432.456 306.335 430.705C309.115 428.852 311.278 426.329 312.822 423.137C314.367 419.945 315.139 416.289 315.139 412.171C315.139 407.949 314.367 404.242 312.822 401.05C311.278 397.858 309.115 395.387 306.335 393.636C303.658 391.886 300.62 391.01 297.222 391.01C293.721 391.01 290.632 391.886 287.955 393.636C285.278 395.387 283.116 397.858 281.468 401.05C279.924 404.242 279.151 407.949 279.151 412.171ZM424.856 452.638H400.143V407.074C400.143 401.719 399.114 397.858 397.054 395.49C395.098 393.018 392.472 391.783 389.177 391.783C386.912 391.783 384.595 392.401 382.227 393.636C379.858 394.872 377.696 396.571 375.739 398.733C373.886 400.896 372.444 403.367 371.415 406.147V452.638H346.702V371.549H368.943V385.141C371.003 381.949 373.577 379.22 376.666 376.955C379.755 374.69 383.308 372.991 387.324 371.858C391.339 370.622 395.716 370.005 400.452 370.005C405.704 370.005 409.925 370.983 413.117 372.939C416.412 374.793 418.884 377.264 420.531 380.353C422.282 383.442 423.414 386.789 423.929 390.393C424.547 393.894 424.856 397.343 424.856 400.741V452.638ZM466.142 454.182C459.243 454.182 452.499 453.05 445.909 450.784C439.319 448.519 433.758 445.172 429.228 440.745L437.723 425.145C442.665 428.749 447.453 431.477 452.087 433.331C456.824 435.184 461.251 436.111 465.37 436.111C468.562 436.111 471.033 435.596 472.784 434.567C474.534 433.537 475.41 431.941 475.41 429.778C475.41 428.234 474.895 427.05 473.865 426.226C472.835 425.299 471.239 424.476 469.077 423.755C467.018 423.034 464.443 422.262 461.354 421.438C455.176 419.379 450.028 417.371 445.909 415.414C441.79 413.458 438.701 411.089 436.642 408.309C434.582 405.426 433.552 401.719 433.552 397.189C433.552 391.731 434.891 386.995 437.568 382.979C440.348 378.86 444.261 375.668 449.307 373.403C454.352 371.137 460.376 370.005 467.378 370.005C472.938 370.005 478.344 370.88 483.596 372.63C488.95 374.381 493.944 377.315 498.578 381.434L489.002 396.88C484.368 393.688 480.249 391.371 476.645 389.929C473.041 388.488 469.54 387.767 466.142 387.767C464.392 387.767 462.796 387.973 461.354 388.385C459.913 388.797 458.729 389.517 457.802 390.547C456.978 391.474 456.566 392.709 456.566 394.254C456.566 395.799 456.978 397.034 457.802 397.961C458.729 398.888 460.119 399.711 461.972 400.432C463.928 401.05 466.348 401.822 469.231 402.749C475.924 404.705 481.485 406.713 485.912 408.773C490.34 410.729 493.635 413.2 495.798 416.186C498.063 419.07 499.196 422.931 499.196 427.771C499.196 436.008 496.209 442.495 490.237 447.232C484.368 451.865 476.336 454.182 466.142 454.182ZM544.307 454.182C537.408 454.182 531.23 453.05 525.773 450.784C520.418 448.519 515.887 445.43 512.181 441.517C508.474 437.604 505.642 433.125 503.686 428.079C501.832 423.034 500.905 417.731 500.905 412.171C500.905 406.507 501.832 401.153 503.686 396.107C505.642 391.062 508.474 386.583 512.181 382.67C515.887 378.757 520.418 375.668 525.773 373.403C531.23 371.137 537.408 370.005 544.307 370.005C551.206 370.005 557.333 371.137 562.687 373.403C568.042 375.668 572.572 378.757 576.279 382.67C579.986 386.583 582.818 391.062 584.774 396.107C586.73 401.153 587.709 406.507 587.709 412.171C587.709 417.731 586.73 423.034 584.774 428.079C582.818 433.125 579.986 437.604 576.279 441.517C572.572 445.43 568.042 448.519 562.687 450.784C557.333 453.05 551.206 454.182 544.307 454.182ZM526.236 412.171C526.236 416.392 527.008 420.099 528.553 423.291C530.2 426.483 532.363 428.955 535.04 430.705C537.717 432.456 540.806 433.331 544.307 433.331C547.705 433.331 550.743 432.456 553.42 430.705C556.2 428.852 558.362 426.329 559.907 423.137C561.451 419.945 562.224 416.289 562.224 412.171C562.224 407.949 561.451 404.242 559.907 401.05C558.362 397.858 556.2 395.387 553.42 393.636C550.743 391.886 547.705 391.01 544.307 391.01C540.806 391.01 537.717 391.886 535.04 393.636C532.363 395.387 530.2 397.858 528.553 401.05C527.008 404.242 526.236 407.949 526.236 412.171ZM645.22 392.709C639.248 392.709 633.842 393.688 629.002 395.644C624.163 397.498 620.662 400.278 618.499 403.985V452.638H593.787V371.549H616.492V387.921C619.272 382.464 622.876 378.191 627.303 375.102C631.731 372.013 636.365 370.417 641.204 370.314C642.337 370.314 643.161 370.314 643.675 370.314C644.293 370.314 644.808 370.365 645.22 370.468V392.709ZM79.9052 603.638V493.975H120.836C132.883 493.975 142.923 496.446 150.954 501.389C159.089 506.229 165.215 512.819 169.334 521.159C173.453 529.397 175.512 538.561 175.512 548.652C175.512 559.773 173.247 569.452 168.716 577.689C164.186 585.927 157.802 592.311 149.564 596.842C141.43 601.372 131.853 603.638 120.836 603.638H79.9052ZM149.719 548.652C149.719 542.268 148.586 536.656 146.321 531.816C144.055 526.874 140.76 523.064 136.436 520.387C132.111 517.607 126.911 516.217 120.836 516.217H105.236V581.396H120.836C127.014 581.396 132.214 580.006 136.436 577.226C140.76 574.343 144.055 570.43 146.321 565.487C148.586 560.442 149.719 554.83 149.719 548.652ZM221.049 605.182C214.15 605.182 208.023 604.101 202.669 601.939C197.314 599.673 192.732 596.636 188.922 592.826C185.215 589.016 182.384 584.64 180.427 579.697C178.471 574.652 177.493 569.4 177.493 563.943C177.493 556.117 179.192 549.012 182.59 542.628C186.091 536.141 191.085 530.941 197.572 527.028C204.059 523.013 211.884 521.005 221.049 521.005C230.213 521.005 237.987 522.961 244.371 526.874C250.858 530.787 255.801 535.935 259.199 542.319C262.597 548.6 264.296 555.448 264.296 562.862C264.296 564.303 264.193 565.745 263.987 567.186C263.884 568.525 263.781 569.709 263.678 570.739H203.75C204.059 574.343 205.037 577.38 206.684 579.852C208.435 582.323 210.649 584.228 213.326 585.567C216.003 586.802 218.835 587.42 221.821 587.42C225.528 587.42 228.977 586.545 232.169 584.794C235.464 583.044 237.73 580.675 238.965 577.689L259.971 583.559C257.912 587.78 254.977 591.539 251.167 594.834C247.46 598.026 243.033 600.549 237.884 602.402C232.839 604.256 227.227 605.182 221.049 605.182ZM203.132 555.602H238.348C237.936 552.204 236.957 549.27 235.413 546.799C233.868 544.224 231.809 542.268 229.235 540.929C226.661 539.488 223.829 538.767 220.74 538.767C217.548 538.767 214.665 539.488 212.09 540.929C209.619 542.268 207.611 544.224 206.067 546.799C204.522 549.27 203.544 552.204 203.132 555.602ZM287.911 603.638L259.182 522.549H284.667L302.429 581.396L320.191 522.549H343.36L314.786 603.638H287.911ZM382.604 605.182C375.705 605.182 369.579 604.05 364.224 601.784C358.87 599.519 354.288 596.43 350.478 592.517C346.771 588.604 343.939 584.125 341.983 579.079C340.026 574.034 339.048 568.68 339.048 563.016C339.048 555.602 340.747 548.703 344.145 542.319C347.646 535.935 352.64 530.787 359.127 526.874C365.614 522.961 373.44 521.005 382.604 521.005C391.872 521.005 399.697 523.013 406.081 527.028C412.568 530.941 417.408 536.09 420.6 542.474L396.505 549.733C394.961 547.262 392.953 545.357 390.481 544.018C388.113 542.68 385.436 542.01 382.45 542.01C379.052 542.01 375.963 542.886 373.183 544.636C370.505 546.387 368.343 548.806 366.695 551.896C365.151 554.985 364.379 558.691 364.379 563.016C364.379 567.238 365.202 570.945 366.85 574.137C368.497 577.329 370.66 579.852 373.337 581.705C376.014 583.456 379.052 584.331 382.45 584.331C384.509 584.331 386.414 584.022 388.165 583.404C390.018 582.683 391.666 581.705 393.107 580.47C394.652 579.234 395.836 577.844 396.66 576.299L420.754 583.713C418.798 587.832 415.966 591.539 412.259 594.834C408.656 598.026 404.382 600.549 399.44 602.402C394.497 604.256 388.885 605.182 382.604 605.182ZM463.605 605.182C456.706 605.182 450.528 604.05 445.07 601.784C439.716 599.519 435.185 596.43 431.478 592.517C427.771 588.604 424.94 584.125 422.983 579.079C421.13 574.034 420.203 568.731 420.203 563.171C420.203 557.507 421.13 552.153 422.983 547.107C424.94 542.062 427.771 537.583 431.478 533.67C435.185 529.757 439.716 526.668 445.07 524.403C450.528 522.137 456.706 521.005 463.605 521.005C470.504 521.005 476.63 522.137 481.985 524.403C487.339 526.668 491.87 529.757 495.577 533.67C499.284 537.583 502.115 542.062 504.072 547.107C506.028 552.153 507.006 557.507 507.006 563.171C507.006 568.731 506.028 574.034 504.072 579.079C502.115 584.125 499.284 588.604 495.577 592.517C491.87 596.43 487.339 599.519 481.985 601.784C476.63 604.05 470.504 605.182 463.605 605.182ZM445.534 563.171C445.534 567.392 446.306 571.099 447.85 574.291C449.498 577.483 451.66 579.955 454.337 581.705C457.015 583.456 460.104 584.331 463.605 584.331C467.003 584.331 470.04 583.456 472.717 581.705C475.498 579.852 477.66 577.329 479.205 574.137C480.749 570.945 481.521 567.289 481.521 563.171C481.521 558.949 480.749 555.242 479.205 552.05C477.66 548.858 475.498 546.387 472.717 544.636C470.04 542.886 467.003 542.01 463.605 542.01C460.104 542.01 457.015 542.886 454.337 544.636C451.66 546.387 449.498 548.858 447.85 552.05C446.306 555.242 445.534 558.949 445.534 563.171ZM591.238 603.638H566.526V558.074C566.526 552.719 565.496 548.858 563.436 546.49C561.48 544.018 558.854 542.783 555.559 542.783C553.294 542.783 550.977 543.401 548.609 544.636C546.241 545.872 544.078 547.571 542.122 549.733C540.268 551.896 538.827 554.367 537.797 557.147V603.638H513.084V522.549H535.326V536.141C537.385 532.949 539.959 530.22 543.048 527.955C546.138 525.69 549.69 523.991 553.706 522.858C557.722 521.622 562.098 521.005 566.834 521.005C572.086 521.005 576.308 521.983 579.5 523.939C582.795 525.793 585.266 528.264 586.913 531.353C588.664 534.442 589.797 537.789 590.311 541.393C590.929 544.894 591.238 548.343 591.238 551.741V603.638Z" fill="white"/>
</g>
<rect x="69.5132" y="223.957" width="235.376" height="62.8777" rx="31.4389" fill="white"/>
<path d="M122.065 268.396H113.58V242.185H122.334C124.902 242.185 127.108 242.71 128.951 243.759C130.794 244.8 132.206 246.298 133.187 248.251C134.177 250.197 134.671 252.53 134.671 255.252C134.671 257.982 134.172 260.328 133.174 262.291C132.184 264.253 130.751 265.763 128.874 266.821C126.997 267.871 124.727 268.396 122.065 268.396ZM117.535 264.94H121.848C123.844 264.94 125.504 264.565 126.826 263.814C128.149 263.054 129.138 261.958 129.795 260.525C130.452 259.083 130.781 257.325 130.781 255.252C130.781 253.196 130.452 251.451 129.795 250.017C129.147 248.584 128.179 247.496 126.89 246.754C125.602 246.012 124.002 245.641 122.091 245.641H117.535V264.94ZM146.673 268.792C144.736 268.792 143.068 268.378 141.669 267.551C140.278 266.715 139.203 265.542 138.444 264.031C137.693 262.513 137.318 260.734 137.318 258.695C137.318 256.681 137.693 254.906 138.444 253.371C139.203 251.835 140.261 250.636 141.618 249.774C142.983 248.913 144.578 248.482 146.404 248.482C147.513 248.482 148.589 248.665 149.629 249.032C150.67 249.399 151.605 249.975 152.432 250.76C153.26 251.545 153.913 252.564 154.39 253.819C154.868 255.064 155.107 256.579 155.107 258.362V259.718H139.481V256.852H151.357C151.357 255.845 151.152 254.953 150.743 254.177C150.333 253.392 149.757 252.773 149.015 252.321C148.281 251.869 147.42 251.643 146.43 251.643C145.355 251.643 144.416 251.907 143.614 252.436C142.821 252.957 142.207 253.639 141.771 254.484C141.345 255.32 141.132 256.229 141.132 257.21V259.45C141.132 260.764 141.362 261.881 141.823 262.803C142.292 263.724 142.945 264.428 143.781 264.914C144.617 265.392 145.594 265.631 146.711 265.631C147.437 265.631 148.098 265.529 148.695 265.324C149.292 265.111 149.809 264.795 150.244 264.377C150.679 263.959 151.012 263.443 151.242 262.828L154.864 263.481C154.574 264.548 154.053 265.482 153.302 266.284C152.56 267.077 151.626 267.696 150.5 268.14C149.382 268.575 148.106 268.792 146.673 268.792ZM174.525 248.738L167.397 268.396H163.301L156.16 248.738H160.268L165.247 263.865H165.451L170.417 248.738H174.525ZM184.652 268.792C182.749 268.792 181.111 268.361 179.737 267.5C178.372 266.629 177.323 265.431 176.589 263.903C175.855 262.376 175.488 260.627 175.488 258.656C175.488 256.66 175.864 254.898 176.615 253.371C177.365 251.835 178.423 250.636 179.789 249.774C181.154 248.913 182.762 248.482 184.613 248.482C186.107 248.482 187.438 248.759 188.606 249.314C189.775 249.86 190.718 250.628 191.435 251.617C192.16 252.607 192.591 253.763 192.727 255.086H189.003C188.798 254.164 188.329 253.371 187.595 252.705C186.87 252.04 185.898 251.707 184.677 251.707C183.611 251.707 182.677 251.988 181.875 252.552C181.081 253.106 180.463 253.9 180.019 254.932C179.575 255.956 179.353 257.167 179.353 258.567C179.353 260 179.571 261.237 180.006 262.278C180.441 263.319 181.056 264.125 181.849 264.697C182.651 265.269 183.594 265.554 184.677 265.554C185.403 265.554 186.06 265.422 186.648 265.158C187.246 264.885 187.745 264.496 188.146 263.993C188.555 263.49 188.841 262.884 189.003 262.176H192.727C192.591 263.447 192.177 264.582 191.486 265.58C190.795 266.578 189.869 267.363 188.709 267.935C187.557 268.506 186.205 268.792 184.652 268.792ZM204.019 268.792C202.176 268.792 200.568 268.37 199.194 267.525C197.82 266.681 196.754 265.499 195.994 263.98C195.235 262.461 194.855 260.687 194.855 258.656C194.855 256.617 195.235 254.834 195.994 253.307C196.754 251.779 197.82 250.593 199.194 249.749C200.568 248.904 202.176 248.482 204.019 248.482C205.862 248.482 207.47 248.904 208.844 249.749C210.217 250.593 211.284 251.779 212.043 253.307C212.802 254.834 213.182 256.617 213.182 258.656C213.182 260.687 212.802 262.461 212.043 263.98C211.284 265.499 210.217 266.681 208.844 267.525C207.47 268.37 205.862 268.792 204.019 268.792ZM204.032 265.58C205.226 265.58 206.216 265.264 207.001 264.633C207.786 264.002 208.366 263.161 208.741 262.112C209.125 261.062 209.317 259.906 209.317 258.643C209.317 257.389 209.125 256.237 208.741 255.188C208.366 254.13 207.786 253.281 207.001 252.641C206.216 252.001 205.226 251.681 204.032 251.681C202.829 251.681 201.83 252.001 201.037 252.641C200.252 253.281 199.667 254.13 199.283 255.188C198.908 256.237 198.72 257.389 198.72 258.643C198.72 259.906 198.908 261.062 199.283 262.112C199.667 263.161 200.252 264.002 201.037 264.633C201.83 265.264 202.829 265.58 204.032 265.58ZM220.199 256.724V268.396H216.372V248.738H220.045V251.937H220.289C220.741 250.896 221.449 250.06 222.413 249.429C223.386 248.797 224.61 248.482 226.086 248.482C227.426 248.482 228.599 248.763 229.606 249.326C230.612 249.881 231.393 250.709 231.948 251.809C232.502 252.91 232.779 254.271 232.779 255.892V268.396H228.953V256.353C228.953 254.928 228.582 253.814 227.839 253.012C227.097 252.202 226.078 251.796 224.781 251.796C223.893 251.796 223.104 251.988 222.413 252.372C221.73 252.756 221.189 253.319 220.788 254.062C220.395 254.795 220.199 255.683 220.199 256.724ZM246.119 268.396L257.56 245.769V245.577H244.327V242.185H261.656V245.692L250.253 268.396H246.119Z" fill="#12C4E7"/>
<g filter="url(#filter1_d_4561_2489)">
<path d="M73.284 705.004V670.681H78.4627V700.546H94.0154V705.004H73.284ZM108.948 705.523C106.535 705.523 104.429 704.97 102.63 703.864C100.831 702.758 99.4346 701.211 98.4402 699.222C97.4458 697.233 96.9486 694.909 96.9486 692.25C96.9486 689.58 97.4458 687.245 98.4402 685.245C99.4346 683.245 100.831 681.692 102.63 680.586C104.429 679.479 106.535 678.926 108.948 678.926C111.362 678.926 113.468 679.479 115.267 680.586C117.065 681.692 118.462 683.245 119.456 685.245C120.451 687.245 120.948 689.58 120.948 692.25C120.948 694.909 120.451 697.233 119.456 699.222C118.462 701.211 117.065 702.758 115.267 703.864C113.468 704.97 111.362 705.523 108.948 705.523ZM108.965 701.317C110.529 701.317 111.825 700.903 112.853 700.077C113.881 699.25 114.641 698.149 115.133 696.775C115.635 695.401 115.887 693.887 115.887 692.233C115.887 690.591 115.635 689.083 115.133 687.708C114.641 686.323 113.881 685.211 112.853 684.373C111.825 683.535 110.529 683.116 108.965 683.116C107.39 683.116 106.082 683.535 105.043 684.373C104.015 685.211 103.25 686.323 102.747 687.708C102.256 689.083 102.01 690.591 102.01 692.233C102.01 693.887 102.256 695.401 102.747 696.775C103.25 698.149 104.015 699.25 105.043 700.077C106.082 700.903 107.39 701.317 108.965 701.317ZM135.969 705.523C133.556 705.523 131.449 704.97 129.651 703.864C127.852 702.758 126.455 701.211 125.461 699.222C124.466 697.233 123.969 694.909 123.969 692.25C123.969 689.58 124.466 687.245 125.461 685.245C126.455 683.245 127.852 681.692 129.651 680.586C131.449 679.479 133.556 678.926 135.969 678.926C138.382 678.926 140.488 679.479 142.287 680.586C144.086 681.692 145.483 683.245 146.477 685.245C147.471 687.245 147.969 689.58 147.969 692.25C147.969 694.909 147.471 697.233 146.477 699.222C145.483 701.211 144.086 702.758 142.287 703.864C140.488 704.97 138.382 705.523 135.969 705.523ZM135.986 701.317C137.55 701.317 138.846 700.903 139.874 700.077C140.902 699.25 141.662 698.149 142.153 696.775C142.656 695.401 142.907 693.887 142.907 692.233C142.907 690.591 142.656 689.083 142.153 687.708C141.662 686.323 140.902 685.211 139.874 684.373C138.846 683.535 137.55 683.116 135.986 683.116C134.41 683.116 133.103 683.535 132.064 684.373C131.036 685.211 130.271 686.323 129.768 687.708C129.276 689.083 129.031 690.591 129.031 692.233C129.031 693.887 129.276 695.401 129.768 696.775C130.271 698.149 131.036 699.25 132.064 700.077C133.103 700.903 134.41 701.317 135.986 701.317ZM156.755 696.272L156.722 690.155H157.593L167.85 679.262H173.85L162.152 691.663H161.364L156.755 696.272ZM152.146 705.004V670.681H157.157V705.004H152.146ZM168.403 705.004L159.185 692.77L162.638 689.267L174.553 705.004H168.403ZM177.001 705.004V679.262H182.012V705.004H177.001ZM179.531 675.29C178.66 675.29 177.911 674.999 177.286 674.418C176.671 673.826 176.364 673.122 176.364 672.306C176.364 671.48 176.671 670.776 177.286 670.195C177.911 669.603 178.66 669.306 179.531 669.306C180.403 669.306 181.146 669.603 181.76 670.195C182.386 670.776 182.699 671.48 182.699 672.306C182.699 673.122 182.386 673.826 181.76 674.418C181.146 674.999 180.403 675.29 179.531 675.29ZM192.348 689.719V705.004H187.337V679.262H192.147V683.451H192.466C193.058 682.088 193.985 680.993 195.248 680.167C196.522 679.34 198.125 678.926 200.058 678.926C201.812 678.926 203.348 679.295 204.667 680.032C205.985 680.759 207.007 681.842 207.734 683.284C208.46 684.725 208.823 686.507 208.823 688.63V705.004H203.812V689.233C203.812 687.367 203.326 685.909 202.354 684.859C201.382 683.798 200.047 683.267 198.348 683.267C197.186 683.267 196.153 683.518 195.248 684.021C194.354 684.524 193.644 685.261 193.119 686.233C192.605 687.194 192.348 688.356 192.348 689.719ZM224.921 715.194C222.876 715.194 221.116 714.925 219.641 714.389C218.178 713.853 216.982 713.143 216.055 712.261C215.128 711.378 214.435 710.412 213.977 709.361L218.284 707.585C218.586 708.076 218.988 708.596 219.491 709.143C220.004 709.702 220.697 710.177 221.569 710.568C222.451 710.959 223.585 711.155 224.971 711.155C226.87 711.155 228.44 710.691 229.68 709.764C230.92 708.847 231.541 707.384 231.541 705.373V700.311H231.222C230.92 700.859 230.485 701.468 229.915 702.138C229.356 702.808 228.585 703.389 227.602 703.881C226.619 704.373 225.34 704.618 223.764 704.618C221.731 704.618 219.898 704.144 218.267 703.194C216.647 702.233 215.362 700.82 214.412 698.954C213.474 697.077 213.005 694.77 213.005 692.032C213.005 689.295 213.468 686.948 214.396 684.993C215.334 683.038 216.619 681.541 218.25 680.502C219.882 679.451 221.731 678.926 223.798 678.926C225.395 678.926 226.686 679.194 227.669 679.731C228.652 680.256 229.418 680.87 229.965 681.574C230.524 682.278 230.954 682.898 231.256 683.435H231.624V679.262H236.535V705.574C236.535 707.786 236.021 709.602 234.993 711.021C233.965 712.439 232.574 713.49 230.82 714.171C229.077 714.853 227.11 715.194 224.921 715.194ZM224.87 700.462C226.312 700.462 227.529 700.127 228.524 699.457C229.529 698.775 230.289 697.803 230.803 696.54C231.328 695.267 231.591 693.742 231.591 691.965C231.591 690.233 231.334 688.708 230.82 687.39C230.306 686.071 229.552 685.044 228.557 684.306C227.563 683.558 226.334 683.183 224.87 683.183C223.362 683.183 222.105 683.574 221.099 684.356C220.094 685.127 219.334 686.178 218.82 687.507C218.317 688.837 218.066 690.323 218.066 691.965C218.066 693.652 218.323 695.133 218.837 696.406C219.351 697.68 220.111 698.674 221.116 699.39C222.133 700.105 223.384 700.462 224.87 700.462ZM264.93 679.262V683.284H250.869V679.262H264.93ZM254.64 673.094H259.651V697.445C259.651 698.417 259.796 699.149 260.087 699.641C260.377 700.121 260.751 700.451 261.209 700.63C261.679 700.797 262.187 700.881 262.735 700.881C263.137 700.881 263.489 700.853 263.79 700.797C264.092 700.741 264.327 700.697 264.494 700.663L265.399 704.803C265.109 704.915 264.695 705.026 264.159 705.138C263.623 705.261 262.952 705.328 262.148 705.339C260.83 705.361 259.601 705.127 258.461 704.635C257.321 704.144 256.4 703.384 255.696 702.356C254.992 701.328 254.64 700.038 254.64 698.485V673.094ZM279.624 705.523C277.211 705.523 275.105 704.97 273.306 703.864C271.507 702.758 270.11 701.211 269.116 699.222C268.122 697.233 267.624 694.909 267.624 692.25C267.624 689.58 268.122 687.245 269.116 685.245C270.11 683.245 271.507 681.692 273.306 680.586C275.105 679.479 277.211 678.926 279.624 678.926C282.037 678.926 284.144 679.479 285.942 680.586C287.741 681.692 289.138 683.245 290.132 685.245C291.127 687.245 291.624 689.58 291.624 692.25C291.624 694.909 291.127 697.233 290.132 699.222C289.138 701.211 287.741 702.758 285.942 703.864C284.144 704.97 282.037 705.523 279.624 705.523ZM279.641 701.317C281.205 701.317 282.501 700.903 283.529 700.077C284.557 699.25 285.317 698.149 285.808 696.775C286.311 695.401 286.563 693.887 286.563 692.233C286.563 690.591 286.311 689.083 285.808 687.708C285.317 686.323 284.557 685.211 283.529 684.373C282.501 683.535 281.205 683.116 279.641 683.116C278.066 683.116 276.758 683.535 275.719 684.373C274.691 685.211 273.926 686.323 273.423 687.708C272.932 689.083 272.686 690.591 272.686 692.233C272.686 693.887 272.932 695.401 273.423 696.775C273.926 698.149 274.691 699.25 275.719 700.077C276.758 700.903 278.066 701.317 279.641 701.317ZM306.876 679.262H311.887V706.68C311.887 708.4 311.574 709.853 310.948 711.037C310.334 712.222 309.417 713.121 308.2 713.736C306.993 714.35 305.501 714.657 303.725 714.657C303.546 714.657 303.378 714.657 303.222 714.657C303.054 714.657 302.881 714.652 302.702 714.641V710.333C302.859 710.333 302.999 710.333 303.121 710.333C303.233 710.333 303.362 710.333 303.507 710.333C304.691 710.333 305.546 710.015 306.071 709.378C306.607 708.752 306.876 707.842 306.876 706.646V679.262ZM309.356 675.29C308.484 675.29 307.736 674.999 307.11 674.418C306.496 673.826 306.188 673.122 306.188 672.306C306.188 671.48 306.496 670.776 307.11 670.195C307.736 669.603 308.484 669.306 309.356 669.306C310.227 669.306 310.97 669.603 311.585 670.195C312.211 670.776 312.523 671.48 312.523 672.306C312.523 673.122 312.211 673.826 311.585 674.418C310.97 674.999 310.227 675.29 309.356 675.29ZM328.056 705.523C325.642 705.523 323.536 704.97 321.737 703.864C319.938 702.758 318.542 701.211 317.547 699.222C316.553 697.233 316.056 694.909 316.056 692.25C316.056 689.58 316.553 687.245 317.547 685.245C318.542 683.245 319.938 681.692 321.737 680.586C323.536 679.479 325.642 678.926 328.056 678.926C330.469 678.926 332.575 679.479 334.374 680.586C336.173 681.692 337.569 683.245 338.564 685.245C339.558 687.245 340.055 689.58 340.055 692.25C340.055 694.909 339.558 697.233 338.564 699.222C337.569 701.211 336.173 702.758 334.374 703.864C332.575 704.97 330.469 705.523 328.056 705.523ZM328.072 701.317C329.636 701.317 330.933 700.903 331.96 700.077C332.988 699.25 333.748 698.149 334.24 696.775C334.743 695.401 334.994 693.887 334.994 692.233C334.994 690.591 334.743 689.083 334.24 687.708C333.748 686.323 332.988 685.211 331.96 684.373C330.933 683.535 329.636 683.116 328.072 683.116C326.497 683.116 325.19 683.535 324.151 684.373C323.123 685.211 322.357 686.323 321.855 687.708C321.363 689.083 321.117 690.591 321.117 692.233C321.117 693.887 321.363 695.401 321.855 696.775C322.357 698.149 323.123 699.25 324.151 700.077C325.19 700.903 326.497 701.317 328.072 701.317ZM344.233 705.004V679.262H349.244V705.004H344.233ZM346.763 675.29C345.892 675.29 345.143 674.999 344.518 674.418C343.903 673.826 343.596 673.122 343.596 672.306C343.596 671.48 343.903 670.776 344.518 670.195C345.143 669.603 345.892 669.306 346.763 669.306C347.635 669.306 348.378 669.603 348.992 670.195C349.618 670.776 349.931 671.48 349.931 672.306C349.931 673.122 349.618 673.826 348.992 674.418C348.378 674.999 347.635 675.29 346.763 675.29ZM359.581 689.719V705.004H354.569V679.262H359.379V683.451H359.698C360.29 682.088 361.217 680.993 362.48 680.167C363.754 679.34 365.357 678.926 367.29 678.926C369.044 678.926 370.58 679.295 371.899 680.032C373.217 680.759 374.239 681.842 374.966 683.284C375.692 684.725 376.055 686.507 376.055 688.63V705.004H371.044V689.233C371.044 687.367 370.558 685.909 369.586 684.859C368.614 683.798 367.279 683.267 365.58 683.267C364.418 683.267 363.385 683.518 362.48 684.021C361.586 684.524 360.877 685.261 360.351 686.233C359.838 687.194 359.581 688.356 359.581 689.719ZM392.434 705.004V679.262H397.445V705.004H392.434ZM394.964 675.29C394.093 675.29 393.344 674.999 392.719 674.418C392.104 673.826 391.797 673.122 391.797 672.306C391.797 671.48 392.104 670.776 392.719 670.195C393.344 669.603 394.093 669.306 394.964 669.306C395.836 669.306 396.579 669.603 397.193 670.195C397.819 670.776 398.132 671.48 398.132 672.306C398.132 673.122 397.819 673.826 397.193 674.418C396.579 674.999 395.836 675.29 394.964 675.29ZM407.781 689.719V705.004H402.77V679.262H407.58V683.451H407.899C408.491 682.088 409.418 680.993 410.681 680.167C411.955 679.34 413.558 678.926 415.491 678.926C417.245 678.926 418.781 679.295 420.1 680.032C421.418 680.759 422.44 681.842 423.167 683.284C423.893 684.725 424.256 686.507 424.256 688.63V705.004H419.245V689.233C419.245 687.367 418.759 685.909 417.787 684.859C416.815 683.798 415.48 683.267 413.781 683.267C412.619 683.267 411.586 683.518 410.681 684.021C409.787 684.524 409.078 685.261 408.552 686.233C408.038 687.194 407.781 688.356 407.781 689.719ZM451.478 705.523C449.065 705.523 446.959 704.97 445.16 703.864C443.361 702.758 441.964 701.211 440.97 699.222C439.975 697.233 439.478 694.909 439.478 692.25C439.478 689.58 439.975 687.245 440.97 685.245C441.964 683.245 443.361 681.692 445.16 680.586C446.959 679.479 449.065 678.926 451.478 678.926C453.891 678.926 455.997 679.479 457.796 680.586C459.595 681.692 460.992 683.245 461.986 685.245C462.981 687.245 463.478 689.58 463.478 692.25C463.478 694.909 462.981 697.233 461.986 699.222C460.992 701.211 459.595 702.758 457.796 703.864C455.997 704.97 453.891 705.523 451.478 705.523ZM451.495 701.317C453.059 701.317 454.355 700.903 455.383 700.077C456.411 699.25 457.171 698.149 457.662 696.775C458.165 695.401 458.416 693.887 458.416 692.233C458.416 690.591 458.165 689.083 457.662 687.708C457.171 686.323 456.411 685.211 455.383 684.373C454.355 683.535 453.059 683.116 451.495 683.116C449.919 683.116 448.612 683.535 447.573 684.373C446.545 685.211 445.78 686.323 445.277 687.708C444.785 689.083 444.54 690.591 444.54 692.233C444.54 693.887 444.785 695.401 445.277 696.775C445.78 698.149 446.545 699.25 447.573 700.077C448.612 700.903 449.919 701.317 451.495 701.317ZM472.666 689.719V705.004H467.655V679.262H472.465V683.451H472.784C473.376 682.088 474.303 680.993 475.566 680.167C476.839 679.34 478.443 678.926 480.376 678.926C482.13 678.926 483.666 679.295 484.984 680.032C486.303 680.759 487.325 681.842 488.051 683.284C488.778 684.725 489.141 686.507 489.141 688.63V705.004H484.13V689.233C484.13 687.367 483.644 685.909 482.672 684.859C481.7 683.798 480.364 683.267 478.666 683.267C477.504 683.267 476.471 683.518 475.566 684.021C474.672 684.524 473.962 685.261 473.437 686.233C472.923 687.194 472.666 688.356 472.666 689.719ZM517.536 679.262V683.284H503.475V679.262H517.536ZM507.246 673.094H512.257V697.445C512.257 698.417 512.402 699.149 512.693 699.641C512.983 700.121 513.357 700.451 513.815 700.63C514.285 700.797 514.793 700.881 515.341 700.881C515.743 700.881 516.095 700.853 516.396 700.797C516.698 700.741 516.933 700.697 517.1 700.663L518.005 704.803C517.715 704.915 517.301 705.026 516.765 705.138C516.229 705.261 515.558 705.328 514.754 705.339C513.436 705.361 512.207 705.127 511.067 704.635C509.927 704.144 509.006 703.384 508.302 702.356C507.598 701.328 507.246 700.038 507.246 698.485V673.094ZM527.227 689.719V705.004H522.216V670.681H527.16V683.451H527.479C528.082 682.066 529.004 680.965 530.244 680.15C531.484 679.334 533.104 678.926 535.104 678.926C536.87 678.926 538.412 679.289 539.73 680.016C541.06 680.742 542.087 681.826 542.814 683.267C543.551 684.697 543.92 686.485 543.92 688.63V705.004H538.909V689.233C538.909 687.345 538.423 685.881 537.451 684.842C536.479 683.792 535.127 683.267 533.395 683.267C532.211 683.267 531.149 683.518 530.211 684.021C529.283 684.524 528.551 685.261 528.015 686.233C527.49 687.194 527.227 688.356 527.227 689.719ZM560.286 705.523C557.749 705.523 555.565 704.982 553.733 703.898C551.912 702.803 550.504 701.267 549.509 699.289C548.526 697.3 548.035 694.971 548.035 692.3C548.035 689.664 548.526 687.34 549.509 685.328C550.504 683.317 551.889 681.747 553.666 680.619C555.453 679.491 557.543 678.926 559.934 678.926C561.386 678.926 562.794 679.167 564.157 679.647C565.52 680.127 566.744 680.882 567.827 681.91C568.911 682.937 569.766 684.273 570.392 685.915C571.017 687.546 571.33 689.529 571.33 691.865V693.641H550.867V689.887H566.42C566.42 688.569 566.151 687.401 565.615 686.384C565.079 685.356 564.325 684.546 563.353 683.954C562.392 683.362 561.263 683.066 559.967 683.066C558.559 683.066 557.33 683.412 556.28 684.105C555.241 684.787 554.437 685.68 553.867 686.786C553.308 687.881 553.029 689.071 553.029 690.356V693.289C553.029 695.01 553.331 696.473 553.934 697.68C554.548 698.887 555.403 699.809 556.498 700.445C557.593 701.071 558.872 701.384 560.336 701.384C561.286 701.384 562.152 701.25 562.934 700.982C563.716 700.702 564.392 700.289 564.962 699.741C565.531 699.194 565.967 698.518 566.269 697.714L571.012 698.568C570.632 699.965 569.95 701.188 568.967 702.239C567.995 703.278 566.772 704.088 565.297 704.669C563.833 705.239 562.163 705.523 560.286 705.523ZM594.04 705.574C592.408 705.574 590.934 705.272 589.615 704.669C588.297 704.054 587.252 703.166 586.481 702.004C585.721 700.842 585.342 699.417 585.342 697.73C585.342 696.278 585.621 695.082 586.18 694.144C586.738 693.205 587.492 692.462 588.442 691.915C589.392 691.367 590.453 690.954 591.626 690.675C592.8 690.395 593.995 690.183 595.213 690.038C596.755 689.859 598.006 689.714 598.967 689.602C599.928 689.479 600.626 689.284 601.062 689.015C601.498 688.747 601.715 688.312 601.715 687.708V687.591C601.715 686.127 601.302 684.993 600.475 684.189C599.66 683.384 598.442 682.982 596.822 682.982C595.135 682.982 593.805 683.356 592.833 684.105C591.872 684.842 591.207 685.664 590.839 686.569L586.129 685.496C586.688 683.932 587.504 682.669 588.576 681.708C589.66 680.736 590.906 680.032 592.313 679.597C593.721 679.15 595.202 678.926 596.755 678.926C597.783 678.926 598.872 679.049 600.023 679.295C601.185 679.53 602.269 679.965 603.274 680.602C604.291 681.239 605.123 682.15 605.771 683.334C606.419 684.507 606.743 686.032 606.743 687.909V705.004H601.85V701.484H601.648C601.324 702.132 600.838 702.769 600.19 703.395C599.542 704.021 598.71 704.54 597.693 704.954C596.676 705.367 595.459 705.574 594.04 705.574ZM595.129 701.551C596.514 701.551 597.699 701.278 598.682 700.73C599.676 700.183 600.431 699.468 600.945 698.585C601.47 697.691 601.732 696.736 601.732 695.719V692.401C601.553 692.58 601.207 692.747 600.693 692.904C600.19 693.049 599.615 693.177 598.967 693.289C598.319 693.39 597.688 693.485 597.073 693.574C596.459 693.652 595.945 693.719 595.531 693.775C594.559 693.898 593.671 694.105 592.867 694.395C592.073 694.686 591.436 695.105 590.956 695.652C590.487 696.188 590.252 696.904 590.252 697.797C590.252 699.038 590.71 699.976 591.626 700.613C592.543 701.239 593.71 701.551 595.129 701.551ZM622.845 705.523C620.354 705.523 618.208 704.959 616.41 703.831C614.622 702.691 613.248 701.121 612.287 699.121C611.326 697.121 610.845 694.831 610.845 692.25C610.845 689.636 611.337 687.328 612.32 685.328C613.304 683.317 614.689 681.747 616.477 680.619C618.264 679.491 620.37 678.926 622.795 678.926C624.75 678.926 626.493 679.289 628.024 680.016C629.555 680.731 630.789 681.736 631.728 683.032C632.677 684.328 633.242 685.842 633.42 687.574H628.543C628.275 686.367 627.661 685.328 626.7 684.457C625.75 683.585 624.476 683.15 622.879 683.15C621.482 683.15 620.259 683.518 619.208 684.256C618.169 684.982 617.359 686.021 616.778 687.373C616.197 688.714 615.907 690.3 615.907 692.133C615.907 694.01 616.192 695.63 616.762 696.993C617.331 698.356 618.136 699.412 619.175 700.16C620.225 700.909 621.46 701.283 622.879 701.283C623.828 701.283 624.689 701.11 625.46 700.764C626.242 700.406 626.895 699.898 627.42 699.239C627.957 698.579 628.331 697.786 628.543 696.859H633.42C633.242 698.524 632.7 700.01 631.795 701.317C630.89 702.624 629.677 703.652 628.158 704.401C626.65 705.149 624.879 705.523 622.845 705.523ZM649.38 679.262V683.284H635.319V679.262H649.38ZM639.09 673.094H644.101V697.445C644.101 698.417 644.246 699.149 644.536 699.641C644.827 700.121 645.201 700.451 645.659 700.63C646.128 700.797 646.637 700.881 647.184 700.881C647.587 700.881 647.938 700.853 648.24 700.797C648.542 700.741 648.776 700.697 648.944 700.663L649.849 704.803C649.559 704.915 649.145 705.026 648.609 705.138C648.073 705.261 647.402 705.328 646.598 705.339C645.279 705.361 644.05 705.127 642.911 704.635C641.771 704.144 640.849 703.384 640.145 702.356C639.441 701.328 639.09 700.038 639.09 698.485V673.094ZM653.507 705.004V679.262H658.518V705.004H653.507ZM656.038 675.29C655.166 675.29 654.418 674.999 653.792 674.418C653.178 673.826 652.87 673.122 652.87 672.306C652.87 671.48 653.178 670.776 653.792 670.195C654.418 669.603 655.166 669.306 656.038 669.306C656.909 669.306 657.652 669.603 658.267 670.195C658.892 670.776 659.205 671.48 659.205 672.306C659.205 673.122 658.892 673.826 658.267 674.418C657.652 674.999 656.909 675.29 656.038 675.29ZM674.687 705.523C672.274 705.523 670.168 704.97 668.369 703.864C666.57 702.758 665.173 701.211 664.179 699.222C663.185 697.233 662.687 694.909 662.687 692.25C662.687 689.58 663.185 687.245 664.179 685.245C665.173 683.245 666.57 681.692 668.369 680.586C670.168 679.479 672.274 678.926 674.687 678.926C677.1 678.926 679.207 679.479 681.005 680.586C682.804 681.692 684.201 683.245 685.195 685.245C686.19 687.245 686.687 689.58 686.687 692.25C686.687 694.909 686.19 697.233 685.195 699.222C684.201 701.211 682.804 702.758 681.005 703.864C679.207 704.97 677.1 705.523 674.687 705.523ZM674.704 701.317C676.268 701.317 677.564 700.903 678.592 700.077C679.62 699.25 680.38 698.149 680.871 696.775C681.374 695.401 681.625 693.887 681.625 692.233C681.625 690.591 681.374 689.083 680.871 687.708C680.38 686.323 679.62 685.211 678.592 684.373C677.564 683.535 676.268 683.116 674.704 683.116C673.128 683.116 671.821 683.535 670.782 684.373C669.754 685.211 668.989 686.323 668.486 687.708C667.995 689.083 667.749 690.591 667.749 692.233C667.749 693.887 667.995 695.401 668.486 696.775C668.989 698.149 669.754 699.25 670.782 700.077C671.821 700.903 673.128 701.317 674.704 701.317ZM695.875 689.719V705.004H690.864V679.262H695.674V683.451H695.993C696.585 682.088 697.512 680.993 698.775 680.167C700.049 679.34 701.652 678.926 703.585 678.926C705.339 678.926 706.875 679.295 708.194 680.032C709.512 680.759 710.534 681.842 711.261 683.284C711.987 684.725 712.35 686.507 712.35 688.63V705.004H707.339V689.233C707.339 687.367 706.853 685.909 705.881 684.859C704.909 683.798 703.574 683.267 701.875 683.267C700.713 683.267 699.68 683.518 698.775 684.021C697.881 684.524 697.172 685.261 696.646 686.233C696.132 687.194 695.875 688.356 695.875 689.719ZM723.135 695.133V694.814C723.157 692.736 723.364 691.082 723.755 689.853C724.157 688.624 724.727 687.63 725.464 686.87C726.202 686.111 727.09 685.418 728.129 684.792C728.8 684.368 729.403 683.893 729.939 683.368C730.475 682.842 730.9 682.239 731.213 681.558C731.526 680.876 731.682 680.122 731.682 679.295C731.682 678.301 731.448 677.44 730.978 676.714C730.509 675.988 729.883 675.429 729.101 675.038C728.33 674.636 727.47 674.435 726.52 674.435C725.66 674.435 724.839 674.614 724.057 674.971C723.275 675.329 722.627 675.887 722.113 676.647C721.599 677.396 721.303 678.362 721.224 679.546H716.129C716.208 677.535 716.716 675.837 717.655 674.452C718.593 673.055 719.833 671.999 721.375 671.284C722.928 670.569 724.643 670.211 726.52 670.211C728.576 670.211 730.375 670.597 731.917 671.368C733.459 672.128 734.654 673.195 735.503 674.569C736.364 675.932 736.794 677.524 736.794 679.345C736.794 680.597 736.598 681.725 736.207 682.731C735.816 683.725 735.258 684.613 734.531 685.395C733.816 686.178 732.956 686.87 731.95 687.474C731.001 688.066 730.23 688.68 729.638 689.317C729.057 689.954 728.632 690.708 728.364 691.58C728.096 692.451 727.95 693.529 727.928 694.814V695.133H723.135ZM725.666 705.322C724.749 705.322 723.962 704.998 723.302 704.35C722.643 703.691 722.314 702.898 722.314 701.97C722.314 701.054 722.643 700.272 723.302 699.624C723.962 698.965 724.749 698.635 725.666 698.635C726.571 698.635 727.353 698.965 728.012 699.624C728.682 700.272 729.017 701.054 729.017 701.97C729.017 702.585 728.861 703.149 728.548 703.663C728.246 704.166 727.844 704.568 727.341 704.87C726.839 705.171 726.28 705.322 725.666 705.322Z" fill="white"/>
</g>
<g filter="url(#filter2_i_4561_2489)">
<path fill-rule="evenodd" clip-rule="evenodd" d="M-60.9298 780.575C-41.1324 766.13 -20.5656 758.515 0.645108 756.063C131.984 740.875 288.014 923.608 438.986 908.144C690.063 882.427 894.372 578.832 1134.01 658.182C1363.63 734.22 1165.91 1102.29 1165.91 1102.29C1026.14 1220.38 17.9959 1194.55 17.9959 1194.55C17.9959 1194.55 -207.999 887.884 -60.9298 780.575Z" fill="#FFBCCD"/>
</g>
</g>
<defs>
<filter id="filter0_d_4561_2489" x="54.7636" y="340.075" width="590.714" height="280.81" filterUnits="userSpaceOnUse" color-interpolation-filters="sRGB">
<feFlood flood-opacity="0" result="BackgroundImageFix"/>
<feColorMatrix in="SourceAlpha" type="matrix" values="0 0 0 0 0 0 0 0 0 0 0 0 0 0 0 0 0 0 127 0" result="hardAlpha"/>
<feOffset dx="-8.58079" dy="6.86463"/>
<feGaussianBlur stdDeviation="4.41911"/>
<feComposite in2="hardAlpha" operator="out"/>
<feColorMatrix type="matrix" values="0 0 0 0 0 0 0 0 0 0 0 0 0 0 0 0 0 0 0.25 0"/>
<feBlend mode="normal" in2="BackgroundImageFix" result="effect1_dropShadow_4561_2489"/>
<feBlend mode="normal" in="SourceGraphic" in2="effect1_dropShadow_4561_2489" result="shape"/>
</filter>
<filter id="filter1_d_4561_2489" x="55.8652" y="667.333" width="681.186" height="63.5632" filterUnits="userSpaceOnUse" color-interpolation-filters="sRGB">
<feFlood flood-opacity="0" result="BackgroundImageFix"/>
<feColorMatrix in="SourceAlpha" type="matrix" values="0 0 0 0 0 0 0 0 0 0 0 0 0 0 0 0 0 0 127 0" result="hardAlpha"/>
<feOffset dx="-8.58079" dy="6.86463"/>
<feGaussianBlur stdDeviation="4.41911"/>
<feComposite in2="hardAlpha" operator="out"/>
<feColorMatrix type="matrix" values="0 0 0 0 0 0 0 0 0 0 0 0 0 0 0 0 0 0 0.25 0"/>
<feBlend mode="normal" in2="BackgroundImageFix" result="effect1_dropShadow_4561_2489"/>
<feBlend mode="normal" in="SourceGraphic" in2="effect1_dropShadow_4561_2489" result="shape"/>
</filter>
<filter id="filter2_i_4561_2489" x="-110.656" y="644.995" width="1376.2" height="557.293" filterUnits="userSpaceOnUse" color-interpolation-filters="sRGB">
<feFlood flood-opacity="0" result="BackgroundImageFix"/>
<feBlend mode="normal" in="SourceGraphic" in2="BackgroundImageFix" result="shape"/>
<feColorMatrix in="SourceAlpha" type="matrix" values="0 0 0 0 0 0 0 0 0 0 0 0 0 0 0 0 0 0 127 0" result="hardAlpha"/>
<feOffset dx="20.4976" dy="5.3472"/>
<feGaussianBlur stdDeviation="29.0085"/>
<feComposite in2="hardAlpha" operator="arithmetic" k2="-1" k3="1"/>
<feColorMatrix type="matrix" values="0 0 0 0 0.128206 0 0 0 0 0.128206 0 0 0 0 0.128206 0 0 0 0.45 0"/>
<feBlend mode="normal" in2="shape" result="effect1_innerShadow_4561_2489"/>
</filter>
<clipPath id="clip0_4561_2489">
<rect x="0.755859" width="1086.33" height="1086.33" rx="103.91" fill="white"/>
</clipPath>
</defs>
</svg>
