<svg width="407" height="407" viewBox="0 0 407 407" fill="none" xmlns="http://www.w3.org/2000/svg">
<g clip-path="url(#clip0_4482_211)">
<rect x="0.0415039" width="406.959" height="406.959" rx="38.9265" fill="#12C4E7"/>
<g filter="url(#filter0_d_4482_211)">
<path d="M54.3411 140.819C54.2254 140.626 53.8204 140.337 53.126 139.951C52.4317 139.527 51.5638 139.083 50.5223 138.621C49.4808 138.158 48.3428 137.753 47.1084 137.405C45.8741 137.058 44.6397 136.885 43.4053 136.885C41.7852 136.885 40.5315 137.174 39.6443 137.753C38.7571 138.293 38.3135 139.141 38.3135 140.299C38.3135 141.224 38.6414 141.957 39.2971 142.497C39.9915 143.037 40.9751 143.519 42.2481 143.944C43.521 144.33 45.0833 144.792 46.9348 145.332C49.5579 146.027 51.8338 146.875 53.7625 147.878C55.6912 148.843 57.157 150.096 58.16 151.639C59.2015 153.182 59.7222 155.227 59.7222 157.773C59.7222 160.087 59.2979 162.054 58.4493 163.675C57.6006 165.256 56.4434 166.548 54.9776 167.551C53.5503 168.516 51.9109 169.229 50.0594 169.692C48.2078 170.116 46.2984 170.329 44.3311 170.329C42.3252 170.329 40.2615 170.136 38.1399 169.75C36.0569 169.326 34.051 168.747 32.1223 168.014C30.1936 167.243 28.4192 166.317 26.7991 165.237L30.9651 156.963C31.1194 157.155 31.6209 157.522 32.4695 158.062C33.3181 158.563 34.3596 159.103 35.594 159.682C36.867 160.222 38.2749 160.704 39.8179 161.129C41.3609 161.553 42.9231 161.765 44.5047 161.765C46.2019 161.765 47.4556 161.495 48.2657 160.955C49.1143 160.415 49.5386 159.663 49.5386 158.698C49.5386 157.657 49.095 156.847 48.2078 156.268C47.3592 155.69 46.1826 155.169 44.6783 154.706C43.2124 154.243 41.5152 153.722 39.5864 153.144C37.0791 152.372 34.9961 151.504 33.3374 150.54C31.7173 149.576 30.5022 148.399 29.6921 147.01C28.9207 145.622 28.5349 143.886 28.5349 141.803C28.5349 138.91 29.21 136.48 30.5601 134.512C31.9487 132.507 33.8003 131.002 36.1148 129.999C38.4292 128.958 40.9558 128.437 43.6946 128.437C45.6233 128.437 47.4749 128.668 49.2493 129.131C51.0623 129.594 52.7403 130.173 54.2832 130.867C55.8648 131.561 57.2728 132.256 58.5071 132.95L54.3411 140.819ZM81.1513 170.444C78.8754 170.444 76.8888 169.962 75.1916 168.998C73.4943 167.995 72.1635 166.645 71.1991 164.948V182.19H61.9413V139.488H69.984V144.407C71.1027 142.671 72.5106 141.321 74.2079 140.356C75.9052 139.392 77.8918 138.91 80.1676 138.91C82.2121 138.91 84.0829 139.315 85.7802 140.125C87.516 140.935 89.0204 142.054 90.2934 143.481C91.5663 144.908 92.55 146.567 93.2443 148.457C93.9387 150.347 94.2858 152.392 94.2858 154.59C94.2858 157.599 93.7265 160.299 92.6078 162.691C91.4892 165.083 89.9269 166.973 87.9211 168.361C85.9538 169.75 83.6972 170.444 81.1513 170.444ZM78.0268 162.633C79.0297 162.633 79.9362 162.421 80.7463 161.997C81.5949 161.534 82.3278 160.936 82.945 160.203C83.5622 159.47 84.0251 158.621 84.3337 157.657C84.6808 156.654 84.8544 155.613 84.8544 154.532C84.8544 153.414 84.6615 152.392 84.2758 151.466C83.9286 150.54 83.4272 149.73 82.7714 149.036C82.1156 148.303 81.3442 147.743 80.457 147.358C79.5697 146.972 78.6054 146.779 77.5639 146.779C76.9467 146.779 76.3102 146.875 75.6545 147.068C75.0373 147.261 74.4394 147.551 73.8607 147.936C73.3207 148.283 72.8192 148.708 72.3564 149.209C71.8935 149.711 71.5077 150.289 71.1991 150.945V157.194C71.6234 158.236 72.1828 159.161 72.8771 159.971C73.5714 160.781 74.3622 161.437 75.2494 161.939C76.1366 162.402 77.0624 162.633 78.0268 162.633ZM111.103 170.444C108.519 170.444 106.204 170.02 104.16 169.171C102.154 168.323 100.457 167.166 99.068 165.7C97.6793 164.234 96.6185 162.556 95.8856 160.666C95.1913 158.776 94.8441 156.789 94.8441 154.706C94.8441 152.584 95.1913 150.579 95.8856 148.688C96.6185 146.798 97.6793 145.12 99.068 143.655C100.457 142.189 102.154 141.031 104.16 140.183C106.204 139.334 108.519 138.91 111.103 138.91C113.688 138.91 115.983 139.334 117.989 140.183C119.995 141.031 121.692 142.189 123.08 143.655C124.469 145.12 125.53 146.798 126.263 148.688C126.996 150.579 127.362 152.584 127.362 154.706C127.362 156.789 126.996 158.776 126.263 160.666C125.53 162.556 124.469 164.234 123.08 165.7C121.692 167.166 119.995 168.323 117.989 169.171C115.983 170.02 113.688 170.444 111.103 170.444ZM104.333 154.706C104.333 156.288 104.623 157.676 105.201 158.872C105.818 160.068 106.629 160.994 107.631 161.649C108.634 162.305 109.792 162.633 111.103 162.633C112.376 162.633 113.514 162.305 114.517 161.649C115.558 160.955 116.369 160.01 116.947 158.814C117.526 157.618 117.815 156.249 117.815 154.706C117.815 153.124 117.526 151.736 116.947 150.54C116.369 149.344 115.558 148.418 114.517 147.763C113.514 147.107 112.376 146.779 111.103 146.779C109.792 146.779 108.634 147.107 107.631 147.763C106.629 148.418 105.818 149.344 105.201 150.54C104.623 151.736 104.333 153.124 104.333 154.706ZM158.917 169.866H149.659V152.797C149.659 150.791 149.273 149.344 148.502 148.457C147.769 147.531 146.785 147.068 145.551 147.068C144.702 147.068 143.834 147.3 142.947 147.763C142.06 148.226 141.25 148.862 140.517 149.672C139.823 150.482 139.283 151.408 138.897 152.449V169.866H129.639V139.488H137.971V144.58C138.743 143.384 139.707 142.362 140.864 141.514C142.022 140.665 143.352 140.029 144.857 139.604C146.361 139.141 148.001 138.91 149.775 138.91C151.742 138.91 153.324 139.276 154.52 140.009C155.754 140.704 156.68 141.629 157.297 142.787C157.953 143.944 158.377 145.197 158.57 146.548C158.801 147.859 158.917 149.151 158.917 150.424V169.866ZM174.384 170.444C171.799 170.444 169.273 170.02 166.804 169.171C164.335 168.323 162.252 167.069 160.555 165.41L163.737 159.566C165.589 160.916 167.382 161.939 169.118 162.633C170.893 163.327 172.551 163.675 174.094 163.675C175.29 163.675 176.216 163.482 176.872 163.096C177.527 162.71 177.855 162.112 177.855 161.302C177.855 160.724 177.662 160.28 177.277 159.971C176.891 159.624 176.293 159.316 175.483 159.046C174.712 158.776 173.747 158.486 172.59 158.178C170.275 157.406 168.347 156.654 166.804 155.921C165.261 155.188 164.104 154.301 163.332 153.259C162.561 152.179 162.175 150.791 162.175 149.093C162.175 147.049 162.676 145.275 163.679 143.77C164.721 142.227 166.187 141.031 168.077 140.183C169.967 139.334 172.223 138.91 174.847 138.91C176.93 138.91 178.955 139.238 180.922 139.894C182.928 140.549 184.799 141.649 186.535 143.192L182.947 148.978C181.211 147.782 179.668 146.914 178.318 146.374C176.968 145.834 175.657 145.564 174.384 145.564C173.728 145.564 173.13 145.641 172.59 145.795C172.05 145.95 171.606 146.22 171.259 146.605C170.951 146.953 170.796 147.415 170.796 147.994C170.796 148.573 170.951 149.036 171.259 149.383C171.606 149.73 172.127 150.039 172.821 150.309C173.554 150.54 174.461 150.829 175.541 151.176C178.048 151.909 180.131 152.662 181.79 153.433C183.449 154.166 184.683 155.092 185.493 156.21C186.342 157.291 186.766 158.737 186.766 160.55C186.766 163.636 185.647 166.066 183.41 167.841C181.211 169.576 178.203 170.444 174.384 170.444ZM203.666 170.444C201.081 170.444 198.767 170.02 196.722 169.171C194.716 168.323 193.019 167.166 191.63 165.7C190.242 164.234 189.181 162.556 188.448 160.666C187.754 158.776 187.407 156.789 187.407 154.706C187.407 152.584 187.754 150.579 188.448 148.688C189.181 146.798 190.242 145.12 191.63 143.655C193.019 142.189 194.716 141.031 196.722 140.183C198.767 139.334 201.081 138.91 203.666 138.91C206.25 138.91 208.545 139.334 210.551 140.183C212.557 141.031 214.254 142.189 215.643 143.655C217.032 145.12 218.092 146.798 218.825 148.688C219.558 150.579 219.925 152.584 219.925 154.706C219.925 156.789 219.558 158.776 218.825 160.666C218.092 162.556 217.032 164.234 215.643 165.7C214.254 167.166 212.557 168.323 210.551 169.171C208.545 170.02 206.25 170.444 203.666 170.444ZM196.896 154.706C196.896 156.288 197.185 157.676 197.764 158.872C198.381 160.068 199.191 160.994 200.194 161.649C201.197 162.305 202.354 162.633 203.666 162.633C204.939 162.633 206.076 162.305 207.079 161.649C208.121 160.955 208.931 160.01 209.51 158.814C210.088 157.618 210.378 156.249 210.378 154.706C210.378 153.124 210.088 151.736 209.51 150.54C208.931 149.344 208.121 148.418 207.079 147.763C206.076 147.107 204.939 146.779 203.666 146.779C202.354 146.779 201.197 147.107 200.194 147.763C199.191 148.418 198.381 149.344 197.764 150.54C197.185 151.736 196.896 153.124 196.896 154.706ZM241.469 147.415C239.232 147.415 237.207 147.782 235.394 148.515C233.581 149.209 232.269 150.251 231.459 151.639V169.866H222.202V139.488H230.707V145.622C231.749 143.577 233.099 141.977 234.758 140.819C236.416 139.662 238.152 139.064 239.965 139.026C240.389 139.026 240.698 139.026 240.891 139.026C241.122 139.026 241.315 139.045 241.469 139.083V147.415ZM29.6921 226.866V185.784H45.0254C49.5386 185.784 53.2996 186.71 56.3084 188.561C59.3558 190.374 61.6509 192.843 63.1939 195.968C64.7369 199.054 65.5084 202.487 65.5084 206.267C65.5084 210.433 64.6597 214.059 62.9625 217.145C61.2652 220.231 58.8736 222.623 55.7876 224.32C52.7403 226.017 49.1529 226.866 45.0254 226.866H29.6921ZM55.8455 206.267C55.8455 203.875 55.4212 201.773 54.5726 199.96C53.7239 198.109 52.4895 196.681 50.8694 195.678C49.2493 194.637 47.3013 194.116 45.0254 194.116H39.1814V218.534H45.0254C47.3399 218.534 49.2879 218.013 50.8694 216.971C52.4895 215.891 53.7239 214.426 54.5726 212.574C55.4212 210.684 55.8455 208.582 55.8455 206.267ZM82.5671 227.444C79.9826 227.444 77.6874 227.039 75.6816 226.229C73.6757 225.381 71.9592 224.243 70.5319 222.815C69.1432 221.388 68.0824 219.749 67.3495 217.897C66.6166 216.007 66.2502 214.04 66.2502 211.995C66.2502 209.064 66.8866 206.402 68.1596 204.01C69.4711 201.58 71.342 199.632 73.7721 198.166C76.2023 196.662 79.134 195.91 82.5671 195.91C86.0002 195.91 88.9126 196.643 91.3042 198.109C93.7343 199.574 95.5859 201.503 96.8589 203.895C98.1318 206.248 98.7683 208.813 98.7683 211.59C98.7683 212.13 98.7297 212.67 98.6526 213.21C98.614 213.712 98.5754 214.155 98.5368 214.541H76.0866C76.2023 215.891 76.5688 217.029 77.186 217.955C77.8417 218.881 78.6711 219.594 79.674 220.096C80.6769 220.559 81.7377 220.79 82.8564 220.79C84.2451 220.79 85.5373 220.462 86.7331 219.807C87.9675 219.151 88.8161 218.264 89.279 217.145L97.1482 219.344C96.3767 220.925 95.2773 222.333 93.8501 223.568C92.4614 224.763 90.8027 225.708 88.874 226.403C86.9838 227.097 84.8815 227.444 82.5671 227.444ZM75.8552 208.871H89.0476C88.8933 207.598 88.5268 206.499 87.9482 205.573C87.3696 204.608 86.5981 203.875 85.6337 203.374C84.6694 202.834 83.6086 202.564 82.4514 202.564C81.2556 202.564 80.1755 202.834 79.2111 203.374C78.2853 203.875 77.5331 204.608 76.9545 205.573C76.3759 206.499 76.0095 207.598 75.8552 208.871ZM107.615 226.866L96.8525 196.488H106.4L113.054 218.534L119.708 196.488H128.387L117.683 226.866H107.615ZM143.089 227.444C140.504 227.444 138.209 227.02 136.203 226.171C134.197 225.323 132.481 224.166 131.054 222.7C129.665 221.234 128.604 219.556 127.871 217.666C127.138 215.776 126.772 213.77 126.772 211.648C126.772 208.871 127.408 206.286 128.681 203.895C129.993 201.503 131.864 199.574 134.294 198.109C136.724 196.643 139.656 195.91 143.089 195.91C146.56 195.91 149.492 196.662 151.884 198.166C154.314 199.632 156.127 201.561 157.323 203.953L148.296 206.672C147.718 205.746 146.965 205.033 146.04 204.531C145.152 204.03 144.15 203.779 143.031 203.779C141.758 203.779 140.601 204.107 139.559 204.763C138.556 205.418 137.746 206.325 137.129 207.482C136.55 208.639 136.261 210.028 136.261 211.648C136.261 213.23 136.57 214.618 137.187 215.814C137.804 217.01 138.614 217.955 139.617 218.649C140.62 219.305 141.758 219.633 143.031 219.633C143.802 219.633 144.516 219.517 145.172 219.286C145.866 219.016 146.483 218.649 147.023 218.187C147.602 217.724 148.046 217.203 148.354 216.624L157.381 219.402C156.648 220.945 155.587 222.333 154.198 223.568C152.848 224.763 151.247 225.708 149.396 226.403C147.544 227.097 145.442 227.444 143.089 227.444ZM173.433 227.444C170.849 227.444 168.534 227.02 166.49 226.171C164.484 225.323 162.787 224.166 161.398 222.7C160.009 221.234 158.948 219.556 158.215 217.666C157.521 215.776 157.174 213.789 157.174 211.706C157.174 209.584 157.521 207.579 158.215 205.688C158.948 203.798 160.009 202.12 161.398 200.655C162.787 199.189 164.484 198.031 166.49 197.183C168.534 196.334 170.849 195.91 173.433 195.91C176.017 195.91 178.313 196.334 180.319 197.183C182.324 198.031 184.022 199.189 185.41 200.655C186.799 202.12 187.86 203.798 188.593 205.688C189.326 207.579 189.692 209.584 189.692 211.706C189.692 213.789 189.326 215.776 188.593 217.666C187.86 219.556 186.799 221.234 185.41 222.7C184.022 224.166 182.324 225.323 180.319 226.171C178.313 227.02 176.017 227.444 173.433 227.444ZM166.663 211.706C166.663 213.288 166.953 214.676 167.531 215.872C168.148 217.068 168.958 217.994 169.961 218.649C170.964 219.305 172.121 219.633 173.433 219.633C174.706 219.633 175.844 219.305 176.847 218.649C177.888 217.955 178.698 217.01 179.277 215.814C179.856 214.618 180.145 213.249 180.145 211.706C180.145 210.124 179.856 208.736 179.277 207.54C178.698 206.344 177.888 205.418 176.847 204.763C175.844 204.107 174.706 203.779 173.433 203.779C172.121 203.779 170.964 204.107 169.961 204.763C168.958 205.418 168.148 206.344 167.531 207.54C166.953 208.736 166.663 210.124 166.663 211.706ZM221.247 226.866H211.989V209.797C211.989 207.791 211.603 206.344 210.832 205.457C210.099 204.531 209.115 204.068 207.881 204.068C207.032 204.068 206.164 204.3 205.277 204.763C204.39 205.226 203.58 205.862 202.847 206.672C202.153 207.482 201.613 208.408 201.227 209.449V226.866H191.969V196.488H200.301V201.58C201.073 200.384 202.037 199.362 203.194 198.514C204.351 197.665 205.682 197.029 207.187 196.604C208.691 196.141 210.33 195.91 212.105 195.91C214.072 195.91 215.654 196.276 216.849 197.009C218.084 197.704 219.01 198.629 219.627 199.787C220.283 200.944 220.707 202.197 220.9 203.548C221.131 204.859 221.247 206.151 221.247 207.424V226.866Z" fill="white"/>
</g>
<rect x="25.7994" y="83.8989" width="88.8594" height="23.072" rx="11.536" fill="white"/>
<path d="M45.4865 100.435H42.3078V90.6162H45.5872C46.5492 90.6162 47.3755 90.8127 48.0659 91.2059C48.7563 91.5958 49.2852 92.1567 49.6528 92.8887C50.0236 93.6174 50.209 94.4916 50.209 95.5112C50.209 96.534 50.022 97.413 49.648 98.1481C49.2772 98.8833 48.7403 99.449 48.0371 99.8453C47.3339 100.238 46.4837 100.435 45.4865 100.435ZM43.7893 99.1406H45.405C46.1529 99.1406 46.7746 98.9999 47.27 98.7187C47.7654 98.4342 48.1362 98.0235 48.3823 97.4865C48.6284 96.9463 48.7515 96.2879 48.7515 95.5112C48.7515 94.7409 48.6284 94.0873 48.3823 93.5503C48.1394 93.0133 47.7766 92.6058 47.294 92.3277C46.8113 92.0497 46.212 91.9106 45.4961 91.9106H43.7893V99.1406ZM54.705 100.584C53.9794 100.584 53.3546 100.429 52.8304 100.119C52.3094 99.8054 51.9067 99.3659 51.6222 98.8002C51.3409 98.2312 51.2003 97.5648 51.2003 96.8009C51.2003 96.0466 51.3409 95.3818 51.6222 94.8064C51.9067 94.2311 52.303 93.782 52.8112 93.4592C53.3226 93.1364 53.9203 92.975 54.6043 92.975C55.0198 92.975 55.4225 93.0437 55.8125 93.1811C56.2024 93.3186 56.5524 93.5343 56.8625 93.8284C57.1725 94.1224 57.417 94.5044 57.596 94.9743C57.775 95.4409 57.8645 96.0082 57.8645 96.6763V97.1845H52.0105V96.1105H56.4597C56.4597 95.7334 56.383 95.3994 56.2296 95.1085C56.0762 94.8144 55.8604 94.5827 55.5824 94.4133C55.3075 94.2439 54.9847 94.1592 54.6139 94.1592C54.2112 94.1592 53.8596 94.2583 53.5591 94.4565C53.2619 94.6514 53.0317 94.9071 52.8687 95.2236C52.7089 95.5368 52.629 95.8772 52.629 96.2448V97.0838C52.629 97.576 52.7153 97.9947 52.8879 98.3399C53.0637 98.6851 53.3082 98.9488 53.6215 99.131C53.9347 99.31 54.3007 99.3995 54.7194 99.3995C54.9911 99.3995 55.2388 99.3611 55.4625 99.2844C55.6862 99.2045 55.8796 99.0862 56.0426 98.9296C56.2056 98.773 56.3303 98.5796 56.4166 98.3495L57.7734 98.594C57.6647 98.9935 57.4698 99.3435 57.1885 99.644C56.9104 99.9412 56.5604 100.173 56.1385 100.339C55.7198 100.502 55.242 100.584 54.705 100.584ZM65.1389 93.0709L62.4684 100.435H60.9342L58.2589 93.0709H59.7979L61.6629 98.7378H61.7396L63.5999 93.0709H65.1389ZM68.9325 100.584C68.2198 100.584 67.6061 100.422 67.0915 100.099C66.5801 99.7734 66.1869 99.3244 65.9121 98.7522C65.6372 98.1801 65.4997 97.5249 65.4997 96.7865C65.4997 96.0386 65.6404 95.3786 65.9216 94.8064C66.2029 94.2311 66.5993 93.782 67.1107 93.4592C67.6221 93.1364 68.2246 92.975 68.9181 92.975C69.4775 92.975 69.9761 93.0789 70.414 93.2866C70.8519 93.4912 71.2051 93.7788 71.4736 94.1496C71.7452 94.5204 71.9066 94.9535 71.9578 95.4489H70.5626C70.4859 95.1037 70.3101 94.8064 70.0352 94.5571C69.7636 94.3078 69.3992 94.1832 68.9421 94.1832C68.5426 94.1832 68.1926 94.2887 67.8921 94.4996C67.5949 94.7074 67.3632 95.0046 67.197 95.3914C67.0308 95.7749 66.9476 96.2288 66.9476 96.753C66.9476 97.2899 67.0292 97.7534 67.1922 98.1433C67.3552 98.5333 67.5853 98.8353 67.8826 99.0495C68.183 99.2636 68.5362 99.3707 68.9421 99.3707C69.2138 99.3707 69.4599 99.3212 69.6804 99.2221C69.9042 99.1198 70.0912 98.9744 70.2414 98.7858C70.3948 98.5972 70.5019 98.3703 70.5626 98.105H71.9578C71.9066 98.5812 71.7516 99.0063 71.4927 99.3803C71.2338 99.7543 70.887 100.048 70.4523 100.262C70.0209 100.477 69.5142 100.584 68.9325 100.584ZM76.1877 100.584C75.4973 100.584 74.8948 100.425 74.3802 100.109C73.8656 99.7926 73.4661 99.3499 73.1816 98.781C72.8972 98.2121 72.7549 97.5472 72.7549 96.7865C72.7549 96.0226 72.8972 95.3546 73.1816 94.7825C73.4661 94.2103 73.8656 93.7661 74.3802 93.4496C74.8948 93.1332 75.4973 92.975 76.1877 92.975C76.8781 92.975 77.4806 93.1332 77.9952 93.4496C78.5098 93.7661 78.9093 94.2103 79.1938 94.7825C79.4783 95.3546 79.6205 96.0226 79.6205 96.7865C79.6205 97.5472 79.4783 98.2121 79.1938 98.781C78.9093 99.3499 78.5098 99.7926 77.9952 100.109C77.4806 100.425 76.8781 100.584 76.1877 100.584ZM76.1925 99.3803C76.64 99.3803 77.0108 99.262 77.3048 99.0255C77.5989 98.789 77.8162 98.4742 77.9569 98.081C78.1007 97.6879 78.1726 97.2548 78.1726 96.7817C78.1726 96.3119 78.1007 95.8804 77.9569 95.4873C77.8162 95.0909 77.5989 94.7729 77.3048 94.5332C77.0108 94.2934 76.64 94.1736 76.1925 94.1736C75.7419 94.1736 75.3679 94.2934 75.0706 94.5332C74.7766 94.7729 74.5576 95.0909 74.4138 95.4873C74.2732 95.8804 74.2029 96.3119 74.2029 96.7817C74.2029 97.2548 74.2732 97.6879 74.4138 98.081C74.5576 98.4742 74.7766 98.789 75.0706 99.0255C75.3679 99.262 75.7419 99.3803 76.1925 99.3803ZM82.2491 96.0626V100.435H80.8156V93.0709H82.1916V94.2695H82.2827C82.4521 93.8795 82.7174 93.5663 83.0786 93.3298C83.4429 93.0933 83.9016 92.975 84.4545 92.975C84.9564 92.975 85.3958 93.0805 85.773 93.2914C86.1502 93.4992 86.4426 93.8092 86.6504 94.2215C86.8581 94.6338 86.962 95.1437 86.962 95.7509V100.435H85.5285V95.9235C85.5285 95.3898 85.3895 94.9727 85.1114 94.6722C84.8333 94.3686 84.4514 94.2167 83.9655 94.2167C83.6331 94.2167 83.3375 94.2887 83.0786 94.4325C82.8229 94.5763 82.6199 94.7873 82.4697 95.0653C82.3226 95.3402 82.2491 95.6726 82.2491 96.0626ZM91.9592 100.435L96.2453 91.9586V91.8867H91.2879V90.6162H97.7795V91.9298L93.5077 100.435H91.9592Z" fill="#12C4E7"/>
<g filter="url(#filter1_d_4482_211)">
<path d="M27.212 263.875V251.017H29.152V262.205H34.9783V263.875H27.212ZM40.5725 264.07C39.6684 264.07 38.8794 263.863 38.2056 263.449C37.5317 263.034 37.0085 262.454 36.636 261.709C36.2634 260.964 36.0772 260.094 36.0772 259.098C36.0772 258.097 36.2634 257.223 36.636 256.473C37.0085 255.724 37.5317 255.142 38.2056 254.728C38.8794 254.314 39.6684 254.106 40.5725 254.106C41.4766 254.106 42.2656 254.314 42.9394 254.728C43.6133 255.142 44.1365 255.724 44.509 256.473C44.8815 257.223 45.0678 258.097 45.0678 259.098C45.0678 260.094 44.8815 260.964 44.509 261.709C44.1365 262.454 43.6133 263.034 42.9394 263.449C42.2656 263.863 41.4766 264.07 40.5725 264.07ZM40.5788 262.494C41.1648 262.494 41.6503 262.339 42.0354 262.03C42.4204 261.72 42.705 261.308 42.8892 260.793C43.0776 260.278 43.1717 259.711 43.1717 259.091C43.1717 258.476 43.0776 257.911 42.8892 257.396C42.705 256.877 42.4204 256.461 42.0354 256.147C41.6503 255.833 41.1648 255.676 40.5788 255.676C39.9886 255.676 39.4989 255.833 39.1096 256.147C38.7246 256.461 38.4379 256.877 38.2495 257.396C38.0653 257.911 37.9733 258.476 37.9733 259.091C37.9733 259.711 38.0653 260.278 38.2495 260.793C38.4379 261.308 38.7246 261.72 39.1096 262.03C39.4989 262.339 39.9886 262.494 40.5788 262.494ZM50.6949 264.07C49.7908 264.07 49.0019 263.863 48.328 263.449C47.6541 263.034 47.1309 262.454 46.7584 261.709C46.3859 260.964 46.1996 260.094 46.1996 259.098C46.1996 258.097 46.3859 257.223 46.7584 256.473C47.1309 255.724 47.6541 255.142 48.328 254.728C49.0019 254.314 49.7908 254.106 50.6949 254.106C51.599 254.106 52.388 254.314 53.0619 254.728C53.7357 255.142 54.2589 255.724 54.6315 256.473C55.004 257.223 55.1902 258.097 55.1902 259.098C55.1902 260.094 55.004 260.964 54.6315 261.709C54.2589 262.454 53.7357 263.034 53.0619 263.449C52.388 263.863 51.599 264.07 50.6949 264.07ZM50.7012 262.494C51.2872 262.494 51.7727 262.339 52.1578 262.03C52.5429 261.72 52.8275 261.308 53.0116 260.793C53.2 260.278 53.2942 259.711 53.2942 259.091C53.2942 258.476 53.2 257.911 53.0116 257.396C52.8275 256.877 52.5429 256.461 52.1578 256.147C51.7727 255.833 51.2872 255.676 50.7012 255.676C50.111 255.676 49.6213 255.833 49.2321 256.147C48.847 256.461 48.5603 256.877 48.3719 257.396C48.1878 257.911 48.0957 258.476 48.0957 259.091C48.0957 259.711 48.1878 260.278 48.3719 260.793C48.5603 261.308 48.847 261.72 49.2321 262.03C49.6213 262.339 50.111 262.494 50.7012 262.494ZM58.4818 260.604L58.4692 258.313H58.7957L62.6381 254.232H64.8857L60.5034 258.878H60.2083L58.4818 260.604ZM56.7552 263.875V251.017H58.6325V263.875H56.7552ZM62.8453 263.875L59.3922 259.292L60.6855 257.98L65.1494 263.875H62.8453ZM66.0662 263.875V254.232H67.9434V263.875H66.0662ZM67.0142 252.744C66.6877 252.744 66.4073 252.635 66.1729 252.417C65.9427 252.196 65.8276 251.932 65.8276 251.626C65.8276 251.317 65.9427 251.053 66.1729 250.835C66.4073 250.613 66.6877 250.503 67.0142 250.503C67.3407 250.503 67.619 250.613 67.8492 250.835C68.0836 251.053 68.2008 251.317 68.2008 251.626C68.2008 251.932 68.0836 252.196 67.8492 252.417C67.619 252.635 67.3407 252.744 67.0142 252.744ZM71.8157 258.15V263.875H69.9385V254.232H71.7404V255.802H71.8597C72.0815 255.291 72.4289 254.881 72.9019 254.571C73.379 254.261 73.9797 254.106 74.7038 254.106C75.3609 254.106 75.9364 254.244 76.4303 254.521C76.9242 254.793 77.3072 255.199 77.5793 255.739C77.8513 256.279 77.9874 256.946 77.9874 257.742V263.875H76.1101V257.968C76.1101 257.269 75.928 256.722 75.5639 256.329C75.1998 255.931 74.6996 255.732 74.0634 255.732C73.6281 255.732 73.2409 255.827 72.9019 256.015C72.567 256.203 72.3012 256.48 72.1045 256.844C71.912 257.204 71.8157 257.639 71.8157 258.15ZM84.0179 267.693C83.2519 267.693 82.5927 267.592 82.0402 267.391C81.4919 267.19 81.044 266.925 80.6966 266.594C80.3492 266.263 80.0897 265.901 79.9181 265.508L81.5316 264.842C81.6446 265.027 81.7953 265.221 81.9837 265.426C82.1762 265.636 82.4357 265.813 82.7622 265.96C83.0928 266.106 83.5177 266.18 84.0367 266.18C84.7482 266.18 85.3363 266.006 85.8009 265.659C86.2655 265.315 86.4978 264.767 86.4978 264.014V262.118H86.3785C86.2655 262.323 86.1023 262.551 85.8888 262.802C85.6795 263.053 85.3907 263.271 85.0224 263.455C84.6541 263.639 84.1748 263.731 83.5846 263.731C82.8229 263.731 82.1364 263.553 81.5253 263.197C80.9184 262.837 80.4371 262.308 80.0813 261.609C79.7297 260.906 79.5539 260.041 79.5539 259.016C79.5539 257.991 79.7276 257.112 80.075 256.379C80.4266 255.647 80.908 255.086 81.5191 254.697C82.1302 254.303 82.8229 254.106 83.5972 254.106C84.1957 254.106 84.6792 254.207 85.0475 254.408C85.4158 254.604 85.7025 254.835 85.9076 255.098C86.1169 255.362 86.2781 255.594 86.3911 255.795H86.5292V254.232H88.3688V264.089C88.3688 264.918 88.1762 265.598 87.7911 266.129C87.4061 266.661 86.885 267.054 86.2278 267.31C85.5749 267.565 84.8382 267.693 84.0179 267.693ZM83.999 262.174C84.539 262.174 84.9952 262.048 85.3677 261.797C85.7444 261.542 86.029 261.178 86.2216 260.705C86.4183 260.228 86.5166 259.656 86.5166 258.991C86.5166 258.342 86.4204 257.771 86.2278 257.277C86.0353 256.783 85.7528 256.398 85.3803 256.122C85.0077 255.841 84.5473 255.701 83.999 255.701C83.434 255.701 82.9631 255.848 82.5864 256.141C82.2097 256.429 81.9251 256.823 81.7325 257.321C81.5442 257.819 81.45 258.376 81.45 258.991C81.45 259.623 81.5463 260.178 81.7388 260.655C81.9313 261.132 82.216 261.504 82.5927 261.772C82.9735 262.04 83.4423 262.174 83.999 262.174ZM99.0061 254.232V255.739H93.7386V254.232H99.0061ZM95.1512 251.921H97.0284V261.044C97.0284 261.408 97.0829 261.682 97.1917 261.866C97.3005 262.046 97.4407 262.17 97.6123 262.237C97.7881 262.3 97.9786 262.331 98.1837 262.331C98.3343 262.331 98.4662 262.321 98.5792 262.3C98.6922 262.279 98.7801 262.262 98.8429 262.249L99.1819 263.8C99.0731 263.842 98.9182 263.884 98.7173 263.926C98.5164 263.972 98.2653 263.997 97.9639 264.001C97.47 264.009 97.0096 263.922 96.5827 263.737C96.1558 263.553 95.8104 263.269 95.5468 262.884C95.2831 262.498 95.1512 262.015 95.1512 261.433V251.921ZM104.511 264.07C103.607 264.07 102.818 263.863 102.144 263.449C101.47 263.034 100.947 262.454 100.574 261.709C100.202 260.964 100.016 260.094 100.016 259.098C100.016 258.097 100.202 257.223 100.574 256.473C100.947 255.724 101.47 255.142 102.144 254.728C102.818 254.314 103.607 254.106 104.511 254.106C105.415 254.106 106.204 254.314 106.878 254.728C107.552 255.142 108.075 255.724 108.447 256.473C108.82 257.223 109.006 258.097 109.006 259.098C109.006 260.094 108.82 260.964 108.447 261.709C108.075 262.454 107.552 263.034 106.878 263.449C106.204 263.863 105.415 264.07 104.511 264.07ZM104.517 262.494C105.103 262.494 105.589 262.339 105.974 262.03C106.359 261.72 106.643 261.308 106.828 260.793C107.016 260.278 107.11 259.711 107.11 259.091C107.11 258.476 107.016 257.911 106.828 257.396C106.643 256.877 106.359 256.461 105.974 256.147C105.589 255.833 105.103 255.676 104.517 255.676C103.927 255.676 103.437 255.833 103.048 256.147C102.663 256.461 102.376 256.877 102.188 257.396C102.004 257.911 101.912 258.476 101.912 259.091C101.912 259.711 102.004 260.278 102.188 260.793C102.376 261.308 102.663 261.72 103.048 262.03C103.437 262.339 103.927 262.494 104.517 262.494ZM114.72 254.232H116.597V264.503C116.597 265.148 116.48 265.692 116.245 266.136C116.015 266.579 115.672 266.916 115.216 267.147C114.764 267.377 114.205 267.492 113.539 267.492C113.472 267.492 113.41 267.492 113.351 267.492C113.288 267.492 113.223 267.49 113.156 267.486V265.872C113.215 265.872 113.267 265.872 113.313 265.872C113.355 265.872 113.403 265.872 113.458 265.872C113.901 265.872 114.222 265.753 114.418 265.514C114.619 265.28 114.72 264.939 114.72 264.491V254.232ZM115.649 252.744C115.322 252.744 115.042 252.635 114.808 252.417C114.577 252.196 114.462 251.932 114.462 251.626C114.462 251.317 114.577 251.053 114.808 250.835C115.042 250.613 115.322 250.503 115.649 250.503C115.975 250.503 116.254 250.613 116.484 250.835C116.718 251.053 116.835 251.317 116.835 251.626C116.835 251.932 116.718 252.196 116.484 252.417C116.254 252.635 115.975 252.744 115.649 252.744ZM122.654 264.07C121.75 264.07 120.961 263.863 120.287 263.449C119.613 263.034 119.09 262.454 118.718 261.709C118.345 260.964 118.159 260.094 118.159 259.098C118.159 258.097 118.345 257.223 118.718 256.473C119.09 255.724 119.613 255.142 120.287 254.728C120.961 254.314 121.75 254.106 122.654 254.106C123.558 254.106 124.347 254.314 125.021 254.728C125.695 255.142 126.218 255.724 126.591 256.473C126.963 257.223 127.149 258.097 127.149 259.098C127.149 260.094 126.963 260.964 126.591 261.709C126.218 262.454 125.695 263.034 125.021 263.449C124.347 263.863 123.558 264.07 122.654 264.07ZM122.66 262.494C123.246 262.494 123.732 262.339 124.117 262.03C124.502 261.72 124.787 261.308 124.971 260.793C125.159 260.278 125.253 259.711 125.253 259.091C125.253 258.476 125.159 257.911 124.971 257.396C124.787 256.877 124.502 256.461 124.117 256.147C123.732 255.833 123.246 255.676 122.66 255.676C122.07 255.676 121.58 255.833 121.191 256.147C120.806 256.461 120.519 256.877 120.331 257.396C120.147 257.911 120.055 258.476 120.055 259.091C120.055 259.711 120.147 260.278 120.331 260.793C120.519 261.308 120.806 261.72 121.191 262.03C121.58 262.339 122.07 262.494 122.66 262.494ZM128.714 263.875V254.232H130.592V263.875H128.714ZM129.662 252.744C129.336 252.744 129.056 252.635 128.821 252.417C128.591 252.196 128.476 251.932 128.476 251.626C128.476 251.317 128.591 251.053 128.821 250.835C129.056 250.613 129.336 250.503 129.662 250.503C129.989 250.503 130.267 250.613 130.497 250.835C130.732 251.053 130.849 251.317 130.849 251.626C130.849 251.932 130.732 252.196 130.497 252.417C130.267 252.635 129.989 252.744 129.662 252.744ZM134.464 258.15V263.875H132.587V254.232H134.389V255.802H134.508C134.73 255.291 135.077 254.881 135.55 254.571C136.027 254.261 136.628 254.106 137.352 254.106C138.009 254.106 138.585 254.244 139.079 254.521C139.572 254.793 139.955 255.199 140.227 255.739C140.5 256.279 140.636 256.946 140.636 257.742V263.875H138.758V257.968C138.758 257.269 138.576 256.722 138.212 256.329C137.848 255.931 137.348 255.732 136.712 255.732C136.276 255.732 135.889 255.827 135.55 256.015C135.215 256.203 134.949 256.48 134.753 256.844C134.56 257.204 134.464 257.639 134.464 258.15ZM146.771 263.875V254.232H148.649V263.875H146.771ZM147.719 252.744C147.393 252.744 147.112 252.635 146.878 252.417C146.648 252.196 146.533 251.932 146.533 251.626C146.533 251.317 146.648 251.053 146.878 250.835C147.112 250.613 147.393 250.503 147.719 250.503C148.046 250.503 148.324 250.613 148.554 250.835C148.789 251.053 148.906 251.317 148.906 251.626C148.906 251.932 148.789 252.196 148.554 252.417C148.324 252.635 148.046 252.744 147.719 252.744ZM152.521 258.15V263.875H150.644V254.232H152.446V255.802H152.565C152.787 255.291 153.134 254.881 153.607 254.571C154.084 254.261 154.685 254.106 155.409 254.106C156.066 254.106 156.642 254.244 157.136 254.521C157.629 254.793 158.012 255.199 158.284 255.739C158.557 256.279 158.693 256.946 158.693 257.742V263.875H156.815V257.968C156.815 257.269 156.633 256.722 156.269 256.329C155.905 255.931 155.405 255.732 154.769 255.732C154.333 255.732 153.946 255.827 153.607 256.015C153.272 256.203 153.006 256.48 152.81 256.844C152.617 257.204 152.521 257.639 152.521 258.15ZM168.89 264.07C167.986 264.07 167.197 263.863 166.523 263.449C165.85 263.034 165.326 262.454 164.954 261.709C164.581 260.964 164.395 260.094 164.395 259.098C164.395 258.097 164.581 257.223 164.954 256.473C165.326 255.724 165.85 255.142 166.523 254.728C167.197 254.314 167.986 254.106 168.89 254.106C169.795 254.106 170.583 254.314 171.257 254.728C171.931 255.142 172.454 255.724 172.827 256.473C173.199 257.223 173.386 258.097 173.386 259.098C173.386 260.094 173.199 260.964 172.827 261.709C172.454 262.454 171.931 263.034 171.257 263.449C170.583 263.863 169.795 264.07 168.89 264.07ZM168.897 262.494C169.483 262.494 169.968 262.339 170.353 262.03C170.738 261.72 171.023 261.308 171.207 260.793C171.395 260.278 171.49 259.711 171.49 259.091C171.49 258.476 171.395 257.911 171.207 257.396C171.023 256.877 170.738 256.461 170.353 256.147C169.968 255.833 169.483 255.676 168.897 255.676C168.307 255.676 167.817 255.833 167.428 256.147C167.042 256.461 166.756 256.877 166.567 257.396C166.383 257.911 166.291 258.476 166.291 259.091C166.291 259.711 166.383 260.278 166.567 260.793C166.756 261.308 167.042 261.72 167.428 262.03C167.817 262.339 168.307 262.494 168.897 262.494ZM176.828 258.15V263.875H174.951V254.232H176.753V255.802H176.872C177.094 255.291 177.441 254.881 177.914 254.571C178.391 254.261 178.992 254.106 179.716 254.106C180.373 254.106 180.949 254.244 181.443 254.521C181.936 254.793 182.319 255.199 182.592 255.739C182.864 256.279 183 256.946 183 257.742V263.875H181.122V257.968C181.122 257.269 180.94 256.722 180.576 256.329C180.212 255.931 179.712 255.732 179.076 255.732C178.64 255.732 178.253 255.827 177.914 256.015C177.579 256.203 177.314 256.48 177.117 256.844C176.924 257.204 176.828 257.639 176.828 258.15ZM193.637 254.232V255.739H188.369V254.232H193.637ZM189.782 251.921H191.659V261.044C191.659 261.408 191.714 261.682 191.823 261.866C191.931 262.046 192.072 262.17 192.243 262.237C192.419 262.3 192.609 262.331 192.815 262.331C192.965 262.331 193.097 262.321 193.21 262.3C193.323 262.279 193.411 262.262 193.474 262.249L193.813 263.8C193.704 263.842 193.549 263.884 193.348 263.926C193.147 263.972 192.896 263.997 192.595 264.001C192.101 264.009 191.64 263.922 191.214 263.737C190.787 263.553 190.441 263.269 190.178 262.884C189.914 262.498 189.782 262.015 189.782 261.433V251.921ZM197.268 258.15V263.875H195.39V251.017H197.242V255.802H197.362C197.588 255.282 197.933 254.87 198.398 254.565C198.862 254.259 199.469 254.106 200.218 254.106C200.88 254.106 201.457 254.242 201.951 254.514C202.449 254.787 202.834 255.193 203.106 255.732C203.383 256.268 203.521 256.938 203.521 257.742V263.875H201.644V257.968C201.644 257.26 201.462 256.712 201.097 256.323C200.733 255.929 200.227 255.732 199.578 255.732C199.134 255.732 198.737 255.827 198.385 256.015C198.038 256.203 197.764 256.48 197.563 256.844C197.366 257.204 197.268 257.639 197.268 258.15ZM209.652 264.07C208.702 264.07 207.883 263.867 207.197 263.461C206.515 263.051 205.987 262.475 205.615 261.735C205.246 260.99 205.062 260.117 205.062 259.116C205.062 258.129 205.246 257.258 205.615 256.505C205.987 255.751 206.506 255.163 207.172 254.74C207.842 254.318 208.624 254.106 209.52 254.106C210.064 254.106 210.591 254.196 211.102 254.376C211.613 254.556 212.071 254.839 212.477 255.224C212.883 255.609 213.203 256.109 213.438 256.724C213.672 257.336 213.789 258.078 213.789 258.953V259.619H206.123V258.212H211.95C211.95 257.719 211.849 257.281 211.648 256.9C211.447 256.515 211.165 256.212 210.801 255.99C210.441 255.768 210.018 255.657 209.532 255.657C209.005 255.657 208.545 255.787 208.151 256.046C207.762 256.302 207.461 256.637 207.247 257.051C207.038 257.461 206.933 257.907 206.933 258.388V259.487C206.933 260.131 207.046 260.68 207.272 261.132C207.502 261.584 207.823 261.929 208.233 262.168C208.643 262.402 209.122 262.519 209.671 262.519C210.026 262.519 210.351 262.469 210.644 262.369C210.937 262.264 211.19 262.109 211.403 261.904C211.617 261.699 211.78 261.446 211.893 261.144L213.67 261.465C213.528 261.988 213.272 262.446 212.904 262.84C212.54 263.229 212.082 263.532 211.529 263.75C210.981 263.963 210.355 264.07 209.652 264.07ZM222.297 264.089C221.686 264.089 221.133 263.976 220.639 263.75C220.145 263.52 219.754 263.187 219.465 262.752C219.181 262.316 219.038 261.783 219.038 261.151C219.038 260.607 219.143 260.159 219.352 259.807C219.561 259.456 219.844 259.177 220.2 258.972C220.555 258.767 220.953 258.612 221.393 258.507C221.832 258.403 222.28 258.323 222.736 258.269C223.314 258.202 223.783 258.148 224.143 258.106C224.502 258.06 224.764 257.986 224.927 257.886C225.091 257.785 225.172 257.622 225.172 257.396V257.352C225.172 256.804 225.017 256.379 224.708 256.078C224.402 255.776 223.946 255.626 223.339 255.626C222.707 255.626 222.209 255.766 221.845 256.046C221.485 256.323 221.236 256.63 221.098 256.969L219.333 256.567C219.543 255.981 219.848 255.509 220.25 255.149C220.656 254.784 221.123 254.521 221.65 254.357C222.177 254.19 222.732 254.106 223.314 254.106C223.699 254.106 224.107 254.152 224.538 254.244C224.973 254.332 225.379 254.496 225.756 254.734C226.137 254.973 226.449 255.314 226.692 255.758C226.934 256.197 227.056 256.768 227.056 257.472V263.875H225.222V262.557H225.147C225.026 262.8 224.844 263.038 224.601 263.273C224.358 263.507 224.046 263.702 223.665 263.857C223.284 264.012 222.828 264.089 222.297 264.089ZM222.705 262.582C223.224 262.582 223.667 262.48 224.036 262.275C224.408 262.069 224.691 261.802 224.883 261.471C225.08 261.136 225.178 260.778 225.178 260.397V259.154C225.111 259.221 224.982 259.284 224.789 259.343C224.601 259.397 224.385 259.445 224.143 259.487C223.9 259.525 223.663 259.56 223.433 259.594C223.203 259.623 223.01 259.648 222.855 259.669C222.491 259.715 222.159 259.792 221.857 259.901C221.56 260.01 221.321 260.167 221.141 260.372C220.966 260.573 220.878 260.841 220.878 261.176C220.878 261.64 221.049 261.992 221.393 262.231C221.736 262.465 222.173 262.582 222.705 262.582ZM233.088 264.07C232.154 264.07 231.351 263.859 230.677 263.436C230.007 263.009 229.492 262.421 229.132 261.672C228.772 260.923 228.592 260.065 228.592 259.098C228.592 258.118 228.777 257.254 229.145 256.505C229.513 255.751 230.032 255.163 230.702 254.74C231.372 254.318 232.161 254.106 233.069 254.106C233.801 254.106 234.454 254.242 235.028 254.514C235.601 254.782 236.064 255.159 236.415 255.645C236.771 256.13 236.982 256.697 237.049 257.346H235.222C235.122 256.894 234.892 256.505 234.532 256.178C234.176 255.852 233.699 255.688 233.1 255.688C232.577 255.688 232.119 255.827 231.725 256.103C231.336 256.375 231.033 256.764 230.815 257.271C230.597 257.773 230.488 258.367 230.488 259.054C230.488 259.757 230.595 260.364 230.809 260.874C231.022 261.385 231.324 261.781 231.713 262.061C232.106 262.341 232.569 262.482 233.1 262.482C233.456 262.482 233.778 262.417 234.067 262.287C234.36 262.153 234.605 261.963 234.802 261.716C235.003 261.469 235.143 261.172 235.222 260.824H237.049C236.982 261.448 236.779 262.005 236.44 262.494C236.101 262.984 235.647 263.369 235.078 263.649C234.513 263.93 233.85 264.07 233.088 264.07ZM243.028 254.232V255.739H237.761V254.232H243.028ZM239.173 251.921H241.05V261.044C241.05 261.408 241.105 261.682 241.214 261.866C241.322 262.046 241.463 262.17 241.634 262.237C241.81 262.3 242.001 262.331 242.206 262.331C242.356 262.331 242.488 262.321 242.601 262.3C242.714 262.279 242.802 262.262 242.865 262.249L243.204 263.8C243.095 263.842 242.94 263.884 242.739 263.926C242.538 263.972 242.287 263.997 241.986 264.001C241.492 264.009 241.032 263.922 240.605 263.737C240.178 263.553 239.832 263.269 239.569 262.884C239.305 262.498 239.173 262.015 239.173 261.433V251.921ZM244.574 263.875V254.232H246.451V263.875H244.574ZM245.522 252.744C245.196 252.744 244.915 252.635 244.681 252.417C244.451 252.196 244.336 251.932 244.336 251.626C244.336 251.317 244.451 251.053 244.681 250.835C244.915 250.613 245.196 250.503 245.522 250.503C245.849 250.503 246.127 250.613 246.357 250.835C246.592 251.053 246.709 251.317 246.709 251.626C246.709 251.932 246.592 252.196 246.357 252.417C246.127 252.635 245.849 252.744 245.522 252.744ZM252.509 264.07C251.605 264.07 250.816 263.863 250.142 263.449C249.468 263.034 248.945 262.454 248.572 261.709C248.2 260.964 248.013 260.094 248.013 259.098C248.013 258.097 248.2 257.223 248.572 256.473C248.945 255.724 249.468 255.142 250.142 254.728C250.816 254.314 251.605 254.106 252.509 254.106C253.413 254.106 254.202 254.314 254.876 254.728C255.549 255.142 256.073 255.724 256.445 256.473C256.818 257.223 257.004 258.097 257.004 259.098C257.004 260.094 256.818 260.964 256.445 261.709C256.073 262.454 255.549 263.034 254.876 263.449C254.202 263.863 253.413 264.07 252.509 264.07ZM252.515 262.494C253.101 262.494 253.586 262.339 253.972 262.03C254.357 261.72 254.641 261.308 254.825 260.793C255.014 260.278 255.108 259.711 255.108 259.091C255.108 258.476 255.014 257.911 254.825 257.396C254.641 256.877 254.357 256.461 253.972 256.147C253.586 255.833 253.101 255.676 252.515 255.676C251.925 255.676 251.435 255.833 251.046 256.147C250.661 256.461 250.374 256.877 250.186 257.396C250.001 257.911 249.909 258.476 249.909 259.091C249.909 259.711 250.001 260.278 250.186 260.793C250.374 261.308 250.661 261.72 251.046 262.03C251.435 262.339 251.925 262.494 252.515 262.494ZM260.446 258.15V263.875H258.569V254.232H260.371V255.802H260.49C260.712 255.291 261.059 254.881 261.532 254.571C262.01 254.261 262.61 254.106 263.334 254.106C263.991 254.106 264.567 254.244 265.061 254.521C265.555 254.793 265.938 255.199 266.21 255.739C266.482 256.279 266.618 256.946 266.618 257.742V263.875H264.741V257.968C264.741 257.269 264.559 256.722 264.194 256.329C263.83 255.931 263.33 255.732 262.694 255.732C262.259 255.732 261.871 255.827 261.532 256.015C261.198 256.203 260.932 256.48 260.735 256.844C260.542 257.204 260.446 257.639 260.446 258.15ZM270.658 260.178V260.058C270.666 259.28 270.744 258.66 270.89 258.2C271.041 257.739 271.255 257.367 271.531 257.082C271.807 256.798 272.14 256.538 272.529 256.304C272.78 256.145 273.006 255.967 273.207 255.77C273.408 255.573 273.567 255.347 273.684 255.092C273.801 254.837 273.86 254.554 273.86 254.244C273.86 253.872 273.772 253.55 273.596 253.278C273.421 253.006 273.186 252.796 272.893 252.65C272.604 252.499 272.282 252.424 271.926 252.424C271.604 252.424 271.296 252.491 271.003 252.625C270.71 252.759 270.468 252.968 270.275 253.252C270.083 253.533 269.972 253.895 269.942 254.339H268.034C268.063 253.585 268.253 252.949 268.605 252.43C268.957 251.907 269.421 251.511 269.999 251.243C270.581 250.976 271.223 250.842 271.926 250.842C272.696 250.842 273.37 250.986 273.948 251.275C274.526 251.559 274.973 251.959 275.292 252.474C275.614 252.985 275.775 253.581 275.775 254.263C275.775 254.732 275.702 255.155 275.555 255.532C275.409 255.904 275.199 256.237 274.927 256.53C274.66 256.823 274.337 257.082 273.961 257.308C273.605 257.53 273.316 257.76 273.094 257.999C272.876 258.238 272.717 258.52 272.617 258.847C272.516 259.173 272.462 259.577 272.454 260.058V260.178H270.658ZM271.606 263.995C271.263 263.995 270.968 263.873 270.721 263.631C270.474 263.384 270.35 263.087 270.35 262.739C270.35 262.396 270.474 262.103 270.721 261.86C270.968 261.613 271.263 261.49 271.606 261.49C271.945 261.49 272.238 261.613 272.485 261.86C272.736 262.103 272.862 262.396 272.862 262.739C272.862 262.969 272.803 263.181 272.686 263.373C272.573 263.562 272.422 263.712 272.234 263.825C272.046 263.938 271.836 263.995 271.606 263.995Z" fill="white"/>
</g>
<g filter="url(#filter2_i_4482_211)">
<path fill-rule="evenodd" clip-rule="evenodd" d="M-23.067 292.418C-15.6505 287.007 -7.94582 284.154 9.24069e-05 283.235C49.2021 277.546 107.654 346.001 164.211 340.208C258.269 330.574 334.807 216.841 424.578 246.568C510.6 275.053 436.531 412.939 436.531 412.939C384.168 457.176 6.5 447.5 6.5 447.5C6.5 447.5 -78.1618 332.618 -23.067 292.418Z" fill="#FFBCCD"/>
</g>
</g>
<defs>
<filter id="filter0_d_4482_211" x="20.2736" y="127.698" width="221.292" height="105.629" filterUnits="userSpaceOnUse" color-interpolation-filters="sRGB">
<feFlood flood-opacity="0" result="BackgroundImageFix"/>
<feColorMatrix in="SourceAlpha" type="matrix" values="0 0 0 0 0 0 0 0 0 0 0 0 0 0 0 0 0 0 127 0" result="hardAlpha"/>
<feOffset dx="-3.21452" dy="2.57162"/>
<feGaussianBlur stdDeviation="1.65548"/>
<feComposite in2="hardAlpha" operator="out"/>
<feColorMatrix type="matrix" values="0 0 0 0 0 0 0 0 0 0 0 0 0 0 0 0 0 0 0.25 0"/>
<feBlend mode="normal" in2="BackgroundImageFix" result="effect1_dropShadow_4482_211"/>
<feBlend mode="normal" in="SourceGraphic" in2="effect1_dropShadow_4482_211" result="shape"/>
</filter>
<filter id="filter1_d_4482_211" x="20.6866" y="249.763" width="255.185" height="23.8123" filterUnits="userSpaceOnUse" color-interpolation-filters="sRGB">
<feFlood flood-opacity="0" result="BackgroundImageFix"/>
<feColorMatrix in="SourceAlpha" type="matrix" values="0 0 0 0 0 0 0 0 0 0 0 0 0 0 0 0 0 0 127 0" result="hardAlpha"/>
<feOffset dx="-3.21452" dy="2.57162"/>
<feGaussianBlur stdDeviation="1.65548"/>
<feComposite in2="hardAlpha" operator="out"/>
<feColorMatrix type="matrix" values="0 0 0 0 0 0 0 0 0 0 0 0 0 0 0 0 0 0 0.25 0"/>
<feBlend mode="normal" in2="BackgroundImageFix" result="effect1_dropShadow_4482_211"/>
<feBlend mode="normal" in="SourceGraphic" in2="effect1_dropShadow_4482_211" result="shape"/>
</filter>
<filter id="filter2_i_4482_211" x="-41.6954" y="241.627" width="515.55" height="208.772" filterUnits="userSpaceOnUse" color-interpolation-filters="sRGB">
<feFlood flood-opacity="0" result="BackgroundImageFix"/>
<feBlend mode="normal" in="SourceGraphic" in2="BackgroundImageFix" result="shape"/>
<feColorMatrix in="SourceAlpha" type="matrix" values="0 0 0 0 0 0 0 0 0 0 0 0 0 0 0 0 0 0 127 0" result="hardAlpha"/>
<feOffset dx="7.67877" dy="2.00316"/>
<feGaussianBlur stdDeviation="10.8671"/>
<feComposite in2="hardAlpha" operator="arithmetic" k2="-1" k3="1"/>
<feColorMatrix type="matrix" values="0 0 0 0 0.128206 0 0 0 0 0.128206 0 0 0 0 0.128206 0 0 0 0.45 0"/>
<feBlend mode="normal" in2="shape" result="effect1_innerShadow_4482_211"/>
</filter>
<clipPath id="clip0_4482_211">
<rect x="0.0415039" width="406.959" height="406.959" rx="38.9265" fill="white"/>
</clipPath>
</defs>
</svg>
