<svg width="117" height="117" viewBox="0 0 117 117" fill="none" xmlns="http://www.w3.org/2000/svg">
<rect width="117" height="117" rx="12" fill="#12C4E7"/>
<path d="M30.5706 71.403C28.9856 71.403 27.602 71.0672 26.4199 70.3955C25.2378 69.697 24.3109 68.7567 23.6393 67.5746V79.5836H17.1915V49.8433H22.793V53.2687C23.5721 52.0597 24.5527 51.1194 25.7348 50.4478C26.9169 49.7761 28.3005 49.4403 29.8856 49.4403C31.3094 49.4403 32.6124 49.7224 33.7945 50.2866C35.0035 50.8507 36.0512 51.6298 36.9378 52.6239C37.8244 53.6179 38.5094 54.7731 38.993 56.0896C39.4766 57.406 39.7184 58.8299 39.7184 60.3612C39.7184 62.4567 39.3288 64.3373 38.5497 66.003C37.7706 67.6687 36.6826 68.9851 35.2856 69.9522C33.9154 70.9194 32.3438 71.403 30.5706 71.403ZM28.3945 65.9627C29.093 65.9627 29.7244 65.8149 30.2885 65.5194C30.8796 65.197 31.39 64.7806 31.8199 64.2701C32.2497 63.7597 32.5721 63.1687 32.7871 62.497C33.0288 61.7985 33.1497 61.0731 33.1497 60.3209C33.1497 59.5418 33.0154 58.8299 32.7468 58.1851C32.505 57.5403 32.1557 56.9761 31.699 56.4925C31.2423 55.9821 30.705 55.5925 30.0871 55.3239C29.4691 55.0552 28.7975 54.9209 28.0721 54.9209C27.6423 54.9209 27.199 54.9881 26.7423 55.1224C26.3124 55.2567 25.896 55.4582 25.493 55.7269C25.1169 55.9687 24.7677 56.2642 24.4453 56.6134C24.1229 56.9627 23.8542 57.3657 23.6393 57.8224V62.1746C23.9348 62.9 24.3244 63.5448 24.8079 64.109C25.2915 64.6731 25.8423 65.1299 26.4602 65.4791C27.0781 65.8015 27.7229 65.9627 28.3945 65.9627ZM52.2371 71.403C50.4371 71.403 48.8251 71.1075 47.4012 70.5164C46.0042 69.9254 44.8221 69.1194 43.855 68.0985C42.8878 67.0776 42.149 65.909 41.6386 64.5925C41.155 63.2761 40.9132 61.8925 40.9132 60.4418C40.9132 58.9642 41.155 57.5672 41.6386 56.2507C42.149 54.9343 42.8878 53.7657 43.855 52.7448C44.8221 51.7239 46.0042 50.9179 47.4012 50.3269C48.8251 49.7358 50.4371 49.4403 52.2371 49.4403C54.0371 49.4403 55.6356 49.7358 57.0326 50.3269C58.4296 50.9179 59.6117 51.7239 60.5789 52.7448C61.546 53.7657 62.2848 54.9343 62.7953 56.2507C63.3057 57.5672 63.5609 58.9642 63.5609 60.4418C63.5609 61.8925 63.3057 63.2761 62.7953 64.5925C62.2848 65.909 61.546 67.0776 60.5789 68.0985C59.6117 69.1194 58.4296 69.9254 57.0326 70.5164C55.6356 71.1075 54.0371 71.403 52.2371 71.403ZM47.5221 60.4418C47.5221 61.5433 47.7236 62.5104 48.1266 63.3433C48.5565 64.1761 49.1206 64.8209 49.8192 65.2776C50.5177 65.7343 51.3236 65.9627 52.2371 65.9627C53.1236 65.9627 53.9162 65.7343 54.6147 65.2776C55.3401 64.794 55.9042 64.1358 56.3072 63.303C56.7102 62.4701 56.9117 61.5164 56.9117 60.4418C56.9117 59.3403 56.7102 58.3731 56.3072 57.5403C55.9042 56.7075 55.3401 56.0627 54.6147 55.606C53.9162 55.1493 53.1236 54.9209 52.2371 54.9209C51.3236 54.9209 50.5177 55.1493 49.8192 55.606C49.1206 56.0627 48.5565 56.7075 48.1266 57.5403C47.7236 58.3731 47.5221 59.3403 47.5221 60.4418ZM76.0274 71.403C74.2274 71.403 72.6154 71.1075 71.1915 70.5164C69.7945 69.9254 68.6124 69.1194 67.6453 68.0985C66.6781 67.0776 65.9393 65.909 65.4288 64.5925C64.9453 63.2761 64.7035 61.8925 64.7035 60.4418C64.7035 58.9642 64.9453 57.5672 65.4288 56.2507C65.9393 54.9343 66.6781 53.7657 67.6453 52.7448C68.6124 51.7239 69.7945 50.9179 71.1915 50.3269C72.6154 49.7358 74.2274 49.4403 76.0274 49.4403C77.8274 49.4403 79.4259 49.7358 80.8229 50.3269C82.2199 50.9179 83.402 51.7239 84.3691 52.7448C85.3363 53.7657 86.0751 54.9343 86.5856 56.2507C87.096 57.5672 87.3512 58.9642 87.3512 60.4418C87.3512 61.8925 87.096 63.2761 86.5856 64.5925C86.0751 65.909 85.3363 67.0776 84.3691 68.0985C83.402 69.1194 82.2199 69.9254 80.8229 70.5164C79.4259 71.1075 77.8274 71.403 76.0274 71.403ZM71.3124 60.4418C71.3124 61.5433 71.5139 62.5104 71.9169 63.3433C72.3468 64.1761 72.9109 64.8209 73.6094 65.2776C74.308 65.7343 75.1139 65.9627 76.0274 65.9627C76.9139 65.9627 77.7065 65.7343 78.405 65.2776C79.1303 64.794 79.6945 64.1358 80.0975 63.303C80.5005 62.4701 80.702 61.5164 80.702 60.4418C80.702 59.3403 80.5005 58.3731 80.0975 57.5403C79.6945 56.7075 79.1303 56.0627 78.405 55.606C77.7065 55.1493 76.9139 54.9209 76.0274 54.9209C75.1139 54.9209 74.308 55.1493 73.6094 55.606C72.9109 56.0627 72.3468 56.7075 71.9169 57.5403C71.5139 58.3731 71.3124 59.3403 71.3124 60.4418ZM89.6624 41.5821H96.1102V63.4642C96.1102 64.3507 96.2714 64.9821 96.5938 65.3582C96.9161 65.7343 97.3729 65.9224 97.9639 65.9224C98.3669 65.9224 98.7699 65.8687 99.1729 65.7612C99.6027 65.6269 99.9788 65.4791 100.301 65.3179L101.147 70.1537C100.342 70.5299 99.4147 70.8254 98.3669 71.0403C97.3191 71.2552 96.3385 71.3627 95.4251 71.3627C93.5982 71.3627 92.1744 70.8791 91.1535 69.9119C90.1594 68.9179 89.6624 67.5209 89.6624 65.7209V41.5821Z" fill="white"/>
</svg>
