<svg width="201" height="54" viewBox="0 0 201 54" fill="none" xmlns="http://www.w3.org/2000/svg">
<path d="M27.1497 0C12.1574 0 0 12.0904 0 27C0 41.9096 12.1574 54 27.1497 54C42.1419 54 54.2919 41.9096 54.2919 27C54.2919 12.0904 42.1344 0 27.1497 0Z" fill="#000008"/>
<path d="M38.1836 38.8167H34.7387V31.5284H19.5605V38.8167H16.1157V15.1833H19.5605V22.2941H34.7387V15.1833H38.1836V38.8167ZM19.7242 28.8054H34.9024V25.0392H19.7242V28.8054Z" fill="white"/>
<path d="M87.0617 40.1693V29.0363H71.4642V40.1693H68V14.9164H71.4642V25.8373H87.0532V14.9164H90.5259V40.1693H87.0617ZM105.475 22.1716C108.24 22.1716 110.432 23.088 112.054 24.9293C113.675 26.7707 114.485 29.0448 114.485 31.7772H99.7838C99.835 32.9397 100.193 34.0258 100.859 35.0271C101.524 36.0369 102.386 36.7412 103.436 37.14C104.127 37.4455 104.912 37.5982 105.799 37.5982C106.849 37.5982 107.89 37.3946 108.914 36.9788C109.937 36.563 110.654 35.952 111.055 35.1459H114.272C114.084 36.2151 113.53 37.1655 112.625 38.0055C111.721 38.8456 110.705 39.4905 109.588 39.9402C108.564 40.3645 107.301 40.5766 105.799 40.5766C103.129 40.5766 100.91 39.7026 99.1524 37.9461C97.3946 36.1896 96.5073 34.0004 96.5073 31.3699C96.5073 28.7393 97.352 26.5416 99.0414 24.7936C100.731 23.054 102.881 22.1716 105.475 22.1716ZM105.475 24.9463C104.093 24.9463 102.915 25.3027 101.951 26.0155C100.987 26.7283 100.338 27.7465 100.006 29.0703H110.876C110.475 27.7635 109.801 26.7537 108.871 26.0325C107.941 25.3112 106.815 24.9463 105.475 24.9463ZM133.581 37.1485C133.513 37.2673 133.308 37.5643 132.975 38.0395C132.31 38.8711 131.448 39.5075 130.399 39.9402C129.349 40.3815 128.265 40.5936 127.148 40.5936C124.528 40.5936 122.412 39.7111 120.816 37.9461C119.221 36.1811 118.419 33.9919 118.419 31.3868C118.419 28.7309 119.221 26.5331 120.834 24.7936C122.446 23.054 124.545 22.18 127.148 22.18C128.265 22.18 129.349 22.3837 130.399 22.7825C131.448 23.1898 132.293 23.7923 132.941 24.5984C133.274 25.0227 133.487 25.3367 133.581 25.5233V14H136.832V40.1778H133.581V37.1485ZM133.658 31.3868C133.658 29.5879 133.112 28.0944 132.028 26.9234C130.945 25.7524 129.52 25.1669 127.753 25.1669C125.945 25.1669 124.494 25.7609 123.41 26.9489C122.327 28.1369 121.781 29.6134 121.781 31.3953C121.781 33.1942 122.335 34.6877 123.445 35.8587C124.554 37.0297 125.987 37.6152 127.753 37.6152C129.545 37.6152 130.97 37.0127 132.045 35.8163C133.12 34.6198 133.658 33.1433 133.658 31.3868ZM151.218 22.1716C153.983 22.1716 156.175 23.088 157.797 24.9293C159.418 26.7707 160.228 29.0448 160.228 31.7772H145.527C145.578 32.9397 145.936 34.0258 146.602 35.0271C147.267 36.0369 148.129 36.7412 149.179 37.14C149.87 37.4455 150.655 37.5982 151.542 37.5982C152.592 37.5982 153.633 37.3946 154.657 36.9788C155.681 36.563 156.397 35.952 156.798 35.1459H160.015C159.827 36.2151 159.273 37.1655 158.368 38.0055C157.464 38.8456 156.448 39.4905 155.331 39.9402C154.307 40.3645 153.044 40.5766 151.542 40.5766C148.872 40.5766 146.653 39.7026 144.895 37.9461C143.129 36.1896 142.25 34.0004 142.25 31.3699C142.25 28.7393 143.095 26.5416 144.793 24.7936C146.474 23.054 148.616 22.1716 151.218 22.1716ZM151.218 24.9463C149.836 24.9463 148.658 25.3027 147.694 26.0155C146.73 26.7283 146.081 27.7465 145.749 29.0703H156.619C156.218 27.7635 155.544 26.7537 154.614 26.0325C153.684 25.3112 152.549 24.9463 151.218 24.9463ZM168.701 30.2498V40.1693H165.45V22.6043H168.701V25.8373C168.795 25.5488 169 25.2009 169.307 24.7681C169.81 23.962 170.578 23.3765 171.611 23.0116C172.652 22.6467 173.727 22.4601 174.845 22.4601H179.282V25.693H174.776C172.822 25.693 171.321 26.007 170.271 26.6349C169.23 27.2714 168.701 28.4678 168.701 30.2498ZM197.243 40.1693V37.1485C196.671 38.2601 195.818 39.1171 194.683 39.7111C193.548 40.3051 192.319 40.6021 190.98 40.6021C188.377 40.6021 186.295 39.7111 184.725 37.9376C183.155 36.1557 182.362 33.9749 182.362 31.3953C182.362 28.7903 183.164 26.601 184.759 24.836C186.355 23.071 188.428 22.1885 190.98 22.1885C193.437 22.1885 195.323 22.9946 196.628 24.6069C196.961 25.0821 197.166 25.3876 197.234 25.5318V22.6128H200.485V40.1778L197.243 40.1693ZM197.311 31.3868C197.311 29.6049 196.79 28.1284 195.741 26.9404C194.691 25.7524 193.309 25.1585 191.594 25.1585C189.828 25.1585 188.411 25.7609 187.336 26.9574C186.261 28.1538 185.724 29.6303 185.724 31.3868C185.724 33.2621 186.261 34.7301 187.336 35.7993C188.411 37.0127 189.828 37.6152 191.594 37.6152C193.309 37.6152 194.691 37.0127 195.741 35.7993C196.79 34.5859 197.311 33.1179 197.311 31.3868Z" fill="#000008"/>
</svg>
