<svg width="222" height="54" viewBox="0 0 222 54" fill="none" xmlns="http://www.w3.org/2000/svg">
<path d="M43.4331 2.74154C44.4827 1.03692 46.3436 0 48.3477 0C51.5328 0 54.1136 2.57538 54.1136 5.75231V48.2508C54.1106 51.4277 51.5283 54.0015 48.3447 54H47.1686C45.4743 53.9985 43.8646 53.2538 42.7686 51.9631L9.11744 11.7523C9.03253 11.6492 8.90456 11.5908 8.77207 11.5908C8.52216 11.5908 8.32042 11.7908 8.32042 12.04V42.22C8.31891 42.3323 8.35896 42.4415 8.43453 42.5262C8.60074 42.7108 8.88619 42.7277 9.07107 42.5615L20.205 32.9246C20.6136 32.5738 21.2071 32.5369 21.6557 32.8354C22.2092 33.2031 22.3585 33.9477 21.9903 34.5L10.679 51.2585C9.62932 52.9631 7.76849 54 5.76434 54C2.58077 54 0 51.4246 0 48.2477V5.75231C0 2.57538 2.58077 0 5.76434 0H6.94045C8.63477 0.00153996 10.2442 0.746155 11.3405 2.03692L44.9961 42.24C45.081 42.3431 45.2075 42.4015 45.3415 42.4015C45.5914 42.4015 45.7932 42.2015 45.7932 41.9523V11.78C45.7932 11.6677 45.7531 11.5585 45.6775 11.4738C45.5113 11.2892 45.2259 11.2723 45.041 11.4385L33.9071 21.0754C33.4985 21.4262 32.905 21.4631 32.4563 21.1646C31.9029 20.7969 31.7536 20.0523 32.1218 19.5L43.4331 2.74154Z" fill="#000008"/>
<path d="M154.583 20.0769C154.583 12.9323 162.637 7.5 171.959 7.5L171.956 7.49846C182.398 7.49846 188.588 13.2292 188.588 21.8615V44.4123C188.588 45.0815 188.065 45.6031 187.394 45.6031H182.025C181.353 45.6031 181.055 44.9338 181.428 44.4123L183.665 40.9138C184.038 40.3938 184.188 39.7231 183.74 39.2769C183.22 38.7554 182.623 38.7554 182.026 39.2769L178.371 42.4031C175.911 44.4862 171.958 46.2723 167.335 46.2723C160.101 46.2723 153.762 42.7754 153.762 36.0769V35.0354C153.762 28.4862 160.847 24.0215 167.857 24.0215H176.134C176.732 24.0215 177.403 24.32 177.477 24.9154C177.627 25.6585 177.327 26.3292 176.507 26.5523L168.527 28.7108C163.01 29.9754 161.667 32.1338 161.667 34.6646C161.667 37.5677 164.427 39.3538 169.2 39.3538C175.316 39.3538 180.238 36.0046 180.238 29.3815V22.9062C180.238 17.5477 176.806 14.4215 171.736 14.4215C167.485 14.4215 163.533 16.8031 162.936 20.0769C162.86 20.6723 162.413 21.1185 161.817 21.1185H155.777C155.106 21.1185 154.583 20.6723 154.583 20.0769Z" fill="#000008"/>
<path d="M130.347 7.5C118.788 7.5 111.405 14.5708 111.405 24.1708V29.4554C111.405 39.5769 118.788 46.4985 130.347 46.4985C140.564 46.4985 147.723 41.2138 148.469 34.0692C148.545 33.3246 148.022 32.8046 147.276 32.8046H141.459C140.937 32.8046 140.49 33.1031 140.34 33.6231C139.594 36.0046 136.09 39.5769 130.347 39.5769C124.604 39.5769 119.235 35.4092 119.309 29.4554L119.384 22.8323C119.458 17.8462 124.68 14.4231 130.347 14.4231C135.493 14.4231 140.49 17.3262 141.01 22.0892C141.054 22.64 140.674 23.1369 140.13 23.2415L123.409 26.48C122.739 26.6292 122.216 27.2246 122.216 27.9677V28.0415C122.216 28.7108 122.887 29.3062 123.857 29.3062H147.871C148.531 29.3062 149.064 28.7723 149.064 28.1154V23.4277C149.064 14.5723 141.382 7.50154 130.345 7.50154L130.347 7.5Z" fill="#000008"/>
<path d="M91.7932 7.64923C87.6909 7.64923 84.7079 8.61692 82.1732 10.8492L77.6979 14.7185C77.3248 15.0169 76.5787 15.24 76.0574 14.7923C75.535 14.3461 75.461 13.7508 75.9081 13.1554L78.2944 9.58307C78.6674 9.06153 78.3699 8.39231 77.6979 8.39231H71.9552C71.2846 8.39231 70.7619 8.91384 70.7619 9.58307V44.4138C70.7619 45.0831 71.2846 45.6046 71.9552 45.6046H77.9213C78.5918 45.6046 79.1146 45.0831 79.1146 44.4138V24.7662C79.1146 15.7615 86.647 14.3477 89.4807 14.3477C95.5208 14.3477 97.684 18.6646 97.684 21.9385V44.4138C97.684 45.0831 98.2064 45.6046 98.8769 45.6046H104.843C105.514 45.6046 106.037 45.0831 106.037 44.4138V21.1938C106.037 12.8585 100.591 7.64923 91.7932 7.64923Z" fill="#000008"/>
<path d="M220.805 8.39385H212.452C209.545 8.39385 206.71 10.18 204.696 11.8923L201.416 14.72C201.043 15.0185 200.37 15.2415 199.923 14.8692C199.401 14.4969 199.177 13.7523 199.626 13.1569L202.012 9.58461C202.385 9.06308 202.088 8.39385 201.416 8.39385H195.823C195.152 8.39385 194.629 8.91539 194.629 9.58461V44.4154C194.629 45.0846 195.152 45.6062 195.823 45.6062H201.938C202.609 45.6062 203.132 45.0846 203.132 44.4154V26.5538C203.132 18.8877 206.264 15.4646 213.051 15.4646H220.807C221.477 15.4646 222 14.9431 222 14.2738V9.58461C222 8.91539 221.477 8.39385 220.805 8.39385Z" fill="#000008"/>
</svg>
