<svg width="260" height="54" viewBox="0 0 260 54" fill="none" xmlns="http://www.w3.org/2000/svg">
<path d="M134.247 3V39.9234H140.708V3H134.247Z" fill="black"/>
<path fill-rule="evenodd" clip-rule="evenodd" d="M72.2683 50.4723V13.2332H77.8309L78.3607 16.2391H78.6256C80.2149 14.1802 82.9158 12.7055 86.6762 12.7055C93.5585 12.7055 99.0691 18.298 99.0691 26.576C99.0691 34.8539 93.5633 40.4464 86.6762 40.4464C82.9678 40.4464 80.3757 38.9152 78.9993 37.1767H78.7344V50.4676H72.273L72.2683 50.4723ZM92.603 26.5807C92.603 21.7279 89.4764 18.6702 85.664 18.6702C81.8515 18.6702 78.7249 21.7279 78.7249 26.5807C78.7249 31.4335 81.8515 34.4912 85.664 34.4912C89.4764 34.4912 92.603 31.4335 92.603 26.5807Z" fill="black"/>
<path fill-rule="evenodd" clip-rule="evenodd" d="M102.347 26.576C102.347 18.5053 108.17 12.7055 115.956 12.7055C123.741 12.7055 129.564 18.5053 129.564 26.576C129.564 34.6466 123.741 40.4464 115.956 40.4464C108.17 40.4464 102.347 34.5901 102.347 26.576ZM123.051 26.576C123.051 21.8269 119.872 18.6655 115.956 18.6655C112.039 18.6655 108.808 21.8316 108.808 26.576C108.808 31.3204 112.039 34.4346 115.956 34.4346C119.872 34.4346 123.051 31.3251 123.051 26.576Z" fill="black"/>
<path d="M164.695 13.2332H171.577L159.927 45.6714C158.763 48.8893 157.174 50.4723 152.988 50.4723H146.739V44.5124H152.037C152.992 44.5124 153.517 44.0365 153.839 43.245L154.473 41.5065L143.565 13.2332H150.447L157.387 31.7491H158.446L164.695 13.2332Z" fill="black"/>
<path fill-rule="evenodd" clip-rule="evenodd" d="M179.377 41.2426H172.811C172.972 45.0919 176.468 51 185.521 51C193.624 51 198.392 46.3027 198.392 39.2356V13.2332H192.777L192.247 16.1355H191.983C190.341 14.1284 187.744 12.7055 184.197 12.7055C177.315 12.7055 172.017 17.9258 172.017 25.5206C172.017 33.1154 177.315 38.3922 184.197 38.3922C187.588 38.3922 190.237 37.0212 191.666 35.49H191.931V39.2356C191.931 42.9293 189.386 45.3557 185.521 45.3557C181.387 45.3557 179.642 42.9812 179.377 41.2426ZM185.204 18.4582C188.965 18.4582 191.931 21.3604 191.931 25.5253C191.931 29.742 188.913 32.6443 185.204 32.6443C181.496 32.6443 178.53 29.6902 178.53 25.5253C178.53 21.3604 181.444 18.4582 185.204 18.4582Z" fill="black"/>
<path fill-rule="evenodd" clip-rule="evenodd" d="M202.881 26.576C202.881 18.5053 208.703 12.7055 216.489 12.7055C224.275 12.7055 230.098 18.5053 230.098 26.576C230.098 34.6466 224.275 40.4464 216.489 40.4464C208.703 40.4464 202.881 34.5901 202.881 26.576ZM223.584 26.576C223.584 21.8269 220.406 18.6655 216.489 18.6655C212.573 18.6655 209.342 21.8316 209.342 26.576C209.342 31.3204 212.573 34.4346 216.489 34.4346C220.406 34.4346 223.584 31.3251 223.584 26.576Z" fill="black"/>
<path d="M234.596 39.9187V39.9234L234.591 39.9187H234.596Z" fill="black"/>
<path d="M234.596 39.9187H241.053V24.7291C241.053 21.4075 243.702 18.821 247.036 18.821C250.371 18.821 252.807 21.2992 252.807 24.7291V39.9187H259.268V23.8857C259.268 17.1343 254.822 12.7055 248.678 12.7055C244.657 12.7055 242.008 14.5524 240.949 15.7633H240.684L240.154 13.2332H234.596V39.9187Z" fill="black"/>
<path d="M45.2649 38.0296L59.726 29.6794C60.4925 29.2358 60.9662 28.4133 60.9662 27.5305V10.8301C60.9662 9.94733 60.4925 9.1248 59.726 8.68124L45.2649 0.331059C44.4984 -0.112504 43.5467 -0.108197 42.7844 0.331059L28.3234 8.68124C27.5569 9.1248 27.0832 9.94733 27.0832 10.8301V40.6737L16.9415 46.5262L6.79986 40.6737V28.9645L16.9415 23.1121L23.6294 26.975V19.12L18.1818 15.972C17.8071 15.7567 17.3765 15.6404 16.9415 15.6404C16.5066 15.6404 16.0759 15.7567 15.7013 15.972L1.24025 24.3222C0.473707 24.7658 0 25.5883 0 26.4711V43.1715C0 44.0543 0.473707 44.8768 1.24025 45.3204L15.7013 53.6706C16.4678 54.1098 17.4152 54.1098 18.1818 53.6706L32.6428 45.3204C33.4093 44.8768 33.883 44.0543 33.883 43.1715V13.3279L34.0639 13.2245L44.0204 7.47543L54.162 13.3279V25.0371L44.0204 30.8895L37.3411 27.0353V34.8902L42.7801 38.0296C43.5467 38.4688 44.4984 38.4688 45.2606 38.0296H45.2649Z" fill="black"/>
</svg>
