<svg width="113" height="52" viewBox="0 0 113 52" fill="none" xmlns="http://www.w3.org/2000/svg">
<path d="M18.2446 40.54C16.1206 40.54 14.2666 40.09 12.6826 39.19C11.0986 38.254 9.85656 36.994 8.95656 35.41V51.502H0.316562V11.65H7.82256V16.24C8.86656 14.62 10.1806 13.36 11.7646 12.46C13.3486 11.56 15.2026 11.11 17.3266 11.11C19.2346 11.11 20.9806 11.488 22.5646 12.244C24.1846 13 25.5886 14.044 26.7766 15.376C27.9646 16.708 28.8826 18.256 29.5306 20.02C30.1786 21.784 30.5026 23.692 30.5026 25.744C30.5026 28.552 29.9806 31.072 28.9366 33.304C27.8926 35.536 26.4346 37.3 24.5626 38.596C22.7266 39.892 20.6206 40.54 18.2446 40.54ZM15.3286 33.25C16.2646 33.25 17.1106 33.052 17.8666 32.656C18.6586 32.224 19.3426 31.666 19.9186 30.982C20.4946 30.298 20.9266 29.506 21.2146 28.606C21.5386 27.67 21.7006 26.698 21.7006 25.69C21.7006 24.646 21.5206 23.692 21.1606 22.828C20.8366 21.964 20.3686 21.208 19.7566 20.56C19.1446 19.876 18.4246 19.354 17.5966 18.994C16.7686 18.634 15.8686 18.454 14.8966 18.454C14.3206 18.454 13.7266 18.544 13.1146 18.724C12.5386 18.904 11.9806 19.174 11.4406 19.534C10.9366 19.858 10.4686 20.254 10.0366 20.722C9.60456 21.19 9.24456 21.73 8.95656 22.342V28.174C9.35256 29.146 9.87456 30.01 10.5226 30.766C11.1706 31.522 11.9086 32.134 12.7366 32.602C13.5646 33.034 14.4286 33.25 15.3286 33.25ZM47.2776 40.54C44.8656 40.54 42.7056 40.144 40.7976 39.352C38.9256 38.56 37.3416 37.48 36.0456 36.112C34.7496 34.744 33.7596 33.178 33.0756 31.414C32.4276 29.65 32.1036 27.796 32.1036 25.852C32.1036 23.872 32.4276 22 33.0756 20.236C33.7596 18.472 34.7496 16.906 36.0456 15.538C37.3416 14.17 38.9256 13.09 40.7976 12.298C42.7056 11.506 44.8656 11.11 47.2776 11.11C49.6896 11.11 51.8316 11.506 53.7036 12.298C55.5756 13.09 57.1596 14.17 58.4556 15.538C59.7516 16.906 60.7416 18.472 61.4256 20.236C62.1096 22 62.4516 23.872 62.4516 25.852C62.4516 27.796 62.1096 29.65 61.4256 31.414C60.7416 33.178 59.7516 34.744 58.4556 36.112C57.1596 37.48 55.5756 38.56 53.7036 39.352C51.8316 40.144 49.6896 40.54 47.2776 40.54ZM40.9596 25.852C40.9596 27.328 41.2296 28.624 41.7696 29.74C42.3456 30.856 43.1016 31.72 44.0376 32.332C44.9736 32.944 46.0536 33.25 47.2776 33.25C48.4656 33.25 49.5276 32.944 50.4636 32.332C51.4356 31.684 52.1916 30.802 52.7316 29.686C53.2716 28.57 53.5416 27.292 53.5416 25.852C53.5416 24.376 53.2716 23.08 52.7316 21.964C52.1916 20.848 51.4356 19.984 50.4636 19.372C49.5276 18.76 48.4656 18.454 47.2776 18.454C46.0536 18.454 44.9736 18.76 44.0376 19.372C43.1016 19.984 42.3456 20.848 41.7696 21.964C41.2296 23.08 40.9596 24.376 40.9596 25.852ZM79.1566 40.54C76.7446 40.54 74.5846 40.144 72.6766 39.352C70.8046 38.56 69.2206 37.48 67.9246 36.112C66.6286 34.744 65.6386 33.178 64.9546 31.414C64.3066 29.65 63.9826 27.796 63.9826 25.852C63.9826 23.872 64.3066 22 64.9546 20.236C65.6386 18.472 66.6286 16.906 67.9246 15.538C69.2206 14.17 70.8046 13.09 72.6766 12.298C74.5846 11.506 76.7446 11.11 79.1566 11.11C81.5686 11.11 83.7106 11.506 85.5826 12.298C87.4546 13.09 89.0386 14.17 90.3346 15.538C91.6306 16.906 92.6206 18.472 93.3046 20.236C93.9886 22 94.3306 23.872 94.3306 25.852C94.3306 27.796 93.9886 29.65 93.3046 31.414C92.6206 33.178 91.6306 34.744 90.3346 36.112C89.0386 37.48 87.4546 38.56 85.5826 39.352C83.7106 40.144 81.5686 40.54 79.1566 40.54ZM72.8386 25.852C72.8386 27.328 73.1086 28.624 73.6486 29.74C74.2246 30.856 74.9806 31.72 75.9166 32.332C76.8526 32.944 77.9326 33.25 79.1566 33.25C80.3446 33.25 81.4066 32.944 82.3426 32.332C83.3146 31.684 84.0706 30.802 84.6106 29.686C85.1506 28.57 85.4206 27.292 85.4206 25.852C85.4206 24.376 85.1506 23.08 84.6106 21.964C84.0706 20.848 83.3146 19.984 82.3426 19.372C81.4066 18.76 80.3446 18.454 79.1566 18.454C77.9326 18.454 76.8526 18.76 75.9166 19.372C74.9806 19.984 74.2246 20.848 73.6486 21.964C73.1086 23.08 72.8386 24.376 72.8386 25.852ZM97.4276 0.579999H106.068V29.902C106.068 31.09 106.284 31.936 106.716 32.44C107.148 32.944 107.76 33.196 108.552 33.196C109.092 33.196 109.632 33.124 110.172 32.98C110.748 32.8 111.252 32.602 111.684 32.386L112.818 38.866C111.738 39.37 110.496 39.766 109.092 40.054C107.688 40.342 106.374 40.486 105.15 40.486C102.702 40.486 100.794 39.838 99.4256 38.542C98.0936 37.21 97.4276 35.338 97.4276 32.926V0.579999Z" fill="white"/>
</svg>
