<svg width="363" height="54" viewBox="0 0 363 54" fill="none" xmlns="http://www.w3.org/2000/svg">
<path d="M60.6412 42.5758L50.6737 53.2633C50.4581 53.4955 50.197 53.6808 49.9067 53.8075C49.6164 53.9343 49.303 53.9999 48.9862 54.0002H1.73622C1.51087 54.0001 1.29043 53.9343 1.10192 53.8108C0.913408 53.6873 0.764998 53.5115 0.674857 53.305C0.584717 53.0984 0.55676 52.8701 0.594414 52.6479C0.632068 52.4257 0.733689 52.2193 0.886846 52.054L10.8431 41.3665C11.0587 41.1344 11.3198 40.9491 11.6101 40.8223C11.9004 40.6956 12.2138 40.6299 12.5306 40.6296H59.7806C60.0078 40.6249 60.2317 40.6876 60.4235 40.8097C60.6153 40.9319 60.7672 41.1081 60.8589 41.3161C60.9511 41.5242 60.9793 41.7548 60.9405 41.979C60.9016 42.2031 60.7976 42.4108 60.6412 42.5758ZM50.6737 21.049C50.4573 20.8179 50.196 20.6334 49.9059 20.5067C49.6158 20.38 49.3028 20.3138 48.9862 20.3121H1.73622C1.51087 20.3123 1.29043 20.3781 1.10192 20.5016C0.913408 20.6251 0.764998 20.8008 0.674857 21.0074C0.584717 21.2139 0.55676 21.4423 0.594414 21.6644C0.632068 21.8866 0.733689 22.0931 0.886846 22.2584L10.8431 32.9515C11.0595 33.1826 11.3208 33.3671 11.6109 33.4938C11.901 33.6205 12.214 33.6867 12.5306 33.6883H59.7806C60.0056 33.6872 60.225 33.6205 60.4128 33.4966C60.6007 33.3727 60.7481 33.1969 60.8375 32.9906C60.927 32.7842 60.9545 32.5563 60.9163 32.3346C60.8786 32.1129 60.7773 31.9071 60.6243 31.7421L50.6737 21.049ZM1.73622 13.3708H48.9862C49.303 13.3706 49.6164 13.3049 49.9067 13.1781C50.197 13.0514 50.4581 12.8661 50.6737 12.634L60.6412 1.9465C60.7976 1.78141 60.9016 1.57373 60.9405 1.34958C60.9793 1.12543 60.9511 0.894824 60.8589 0.686778C60.7672 0.478732 60.6153 0.302544 60.4235 0.180384C60.2317 0.0582239 60.0078 -0.00445102 59.7806 0.000245926H12.5306C12.2138 0.000579399 11.9004 0.0661811 11.6101 0.192961C11.3198 0.31974 11.0587 0.504977 10.8431 0.737121L0.886846 11.4246C0.733689 11.5899 0.632068 11.7963 0.594414 12.0185C0.55676 12.2407 0.584717 12.469 0.674857 12.6756C0.764998 12.8821 0.913408 13.0579 1.10192 13.1814C1.29043 13.3049 1.51087 13.3707 1.73622 13.3708Z" fill="black"/>
<path fill-rule="evenodd" clip-rule="evenodd" d="M256.093 6.18793H231.343C230.251 6.18203 229.17 6.39105 228.16 6.80308C227.15 7.21517 226.23 7.82216 225.455 8.58947C224.679 9.35677 224.062 10.2694 223.639 11.2751C223.216 12.2808 222.995 13.36 222.99 14.4511V47.8129H231.427V34.1386H256.065V47.8129H264.502V14.4511C264.496 13.3552 264.274 12.2714 263.847 11.262C263.42 10.2526 262.799 9.33748 262.017 8.56939C261.236 7.80135 260.31 7.19554 259.293 6.78683C258.276 6.37811 257.188 6.1746 256.093 6.18793ZM256.031 25.8136H231.393V14.5129H256.031V25.8136Z" fill="#000008"/>
<path fill-rule="evenodd" clip-rule="evenodd" d="M141.843 6.18786H167.218C168.309 6.18195 169.39 6.39097 170.4 6.80301C171.411 7.21509 172.33 7.82209 173.105 8.58939C173.881 9.3567 174.498 10.2693 174.921 11.275C175.344 12.2807 175.565 13.36 175.571 14.451V39.5497C175.565 40.6407 175.344 41.72 174.921 42.7257C174.498 43.7314 173.881 44.644 173.105 45.4113C172.33 46.1786 171.411 46.7856 170.4 47.1977C169.39 47.6097 168.309 47.8187 167.218 47.8128H141.843C140.75 47.8217 139.666 47.6149 138.653 47.2042C137.641 46.7934 136.719 46.1869 135.941 45.4193C135.163 44.6517 134.544 43.7381 134.12 42.7309C133.695 41.7237 133.473 40.6427 133.468 39.5497V14.451C133.473 13.358 133.695 12.277 134.12 11.2698C134.544 10.2625 135.163 9.34899 135.941 8.5814C136.719 7.81376 137.641 7.20727 138.653 6.79654C139.666 6.3858 140.75 6.17897 141.843 6.18786ZM141.905 39.4878H167.156L167.145 14.5129H141.905V39.4878Z" fill="#000008"/>
<path d="M92.9678 22.8377H118.247C119.338 22.8318 120.421 23.0412 121.432 23.454C122.443 23.8667 123.362 24.4747 124.139 25.2432C124.914 26.0117 125.531 26.9256 125.953 27.9327C126.376 28.9397 126.595 30.0201 126.6 31.1121V39.5496C126.594 40.6406 126.373 41.7198 125.95 42.7255C125.527 43.7313 124.91 44.6438 124.134 45.4112C123.359 46.1785 122.439 46.7855 121.429 47.1975C120.419 47.6096 119.338 47.8187 118.247 47.8127H85.1322V39.4877H118.196V31.1627H92.8834C91.7916 31.1687 90.7088 30.9592 89.698 30.5465C88.6871 30.1337 87.7675 29.5257 86.9912 28.7572C86.2155 27.9887 85.599 27.0748 85.1766 26.0677C84.7541 25.0608 84.5348 23.9803 84.5303 22.8883V14.4508C84.5359 13.3598 84.757 12.2806 85.18 11.2748C85.603 10.2691 86.22 9.35654 86.9957 8.58924C87.7708 7.82193 88.6905 7.21494 89.7008 6.80285C90.711 6.39082 91.7921 6.1818 92.8834 6.1877H124.817V14.5127H92.9678V22.8377Z" fill="#000008"/>
<path fill-rule="evenodd" clip-rule="evenodd" d="M329.864 6.1877H354.614C355.705 6.1818 356.787 6.39082 357.797 6.80285C358.807 7.21494 359.726 7.82193 360.502 8.58924C361.278 9.35654 361.895 10.2691 362.318 11.2748C362.741 12.2806 362.962 13.3598 362.967 14.4508V47.8127H354.53V34.1383H329.949V47.8127H321.511V14.4508C321.517 13.3598 321.738 12.2806 322.161 11.2748C322.584 10.2691 323.201 9.35654 323.977 8.58924C324.752 7.82193 325.671 7.21494 326.682 6.80285C327.692 6.39082 328.773 6.1818 329.864 6.1877ZM329.892 25.8133H354.53V14.5127H329.892V25.8133Z" fill="#000008"/>
<path d="M305.593 39.4876H302.218L290.152 9.67515C289.739 8.64662 289.027 7.76513 288.109 7.14379C287.191 6.5224 286.108 6.18945 285 6.18765H277.513C276.785 6.18394 276.064 6.32361 275.39 6.59861C274.717 6.87368 274.104 7.27868 273.586 7.79055C273.07 8.30248 272.658 8.91116 272.377 9.582C272.095 10.2528 271.948 10.9726 271.944 11.7002V47.8126H280.381V14.5126H283.756L295.816 44.3251C296.237 45.3517 296.954 46.2296 297.876 46.8468C298.797 47.464 299.882 47.7924 300.991 47.7901H308.478C309.206 47.7939 309.927 47.6542 310.601 47.3792C311.275 47.1042 311.887 46.6991 312.405 46.1872C312.921 45.6754 313.333 45.0666 313.614 44.3958C313.896 43.725 314.043 43.0053 314.047 42.2776V6.18765H305.593V39.4876Z" fill="#000008"/>
<path d="M183.024 6.18784H191.462V39.4878H216.718V47.8128H191.406C190.312 47.8225 189.228 47.6162 188.214 47.2058C187.201 46.7954 186.278 46.189 185.499 45.4213C184.721 44.6536 184.102 43.7398 183.677 42.7322C183.252 41.7247 183.03 40.6432 183.024 39.5497V6.18784Z" fill="#000008"/>
</svg>
