<svg width="152" height="53" viewBox="0 0 152 53" fill="none" xmlns="http://www.w3.org/2000/svg">
<g clip-path="url(#clip0_4627_3515)">
<mask id="mask0_4627_3515" style="mask-type:luminance" maskUnits="userSpaceOnUse" x="0" y="0" width="152" height="53">
<path d="M152 0H0V53H152V0Z" fill="white"/>
</mask>
<g mask="url(#mask0_4627_3515)">
<mask id="mask1_4627_3515" style="mask-type:luminance" maskUnits="userSpaceOnUse" x="0" y="0" width="54" height="53">
<path d="M53.1881 0H0V53H53.1881V0Z" fill="white"/>
</mask>
<g mask="url(#mask1_4627_3515)">
<path d="M26.595 53.0021C41.283 53.0021 53.1902 41.1371 53.1902 26.501C53.1902 11.8649 41.283 0 26.595 0C11.907 0 0 11.8649 0 26.501C0 41.1371 11.907 53.0021 26.595 53.0021Z" fill="black"/>
<path d="M32.8554 12.2914L25.4248 28.3416L20.1593 16.9688H9.83797V18.5443H17.4063L17.0629 19.2839L8.87573 36.969H19.1477V35.3935H11.3471L19.1477 18.5443L19.4911 19.2839L24.6312 30.3904H19.1498V31.9659H32.8575V30.3904H26.2185L32.8575 16.0509L41.8116 35.3935H38.9064V36.969H44.2809L32.8554 12.2894V12.2914Z" fill="#FFF5E9"/>
</g>
<path d="M82.452 32.8259V35.7492H66.5815V33.4398L77.5382 20.1098H66.7574V17.1866H82.1147V19.496L71.1576 32.8259H82.452Z" fill="black"/>
<path d="M105.334 27.9733L102.386 30.9989V35.7492H98.9248V17.1866H102.386V26.7017L111.583 17.1866H115.47L107.652 25.4886L115.954 35.7492H111.906L105.334 27.9733Z" fill="black"/>
<path d="M148.722 35.7492L148.692 23.4423L142.576 33.6298H141.036L134.919 23.6031V35.7492H131.619V17.1866H134.465L141.858 29.4934L149.118 17.1866H151.978L151.993 35.7492H148.722Z" fill="black"/>
</g>
</g>
<defs>
<clipPath id="clip0_4627_3515">
<rect width="152" height="53" fill="white"/>
</clipPath>
</defs>
</svg>
